<?xml version="1.0" encoding="UTF-8"?>
<svg version="1.1" xmlns="http://www.w3.org/2000/svg" width="500" height="250">
<path d="M0 0 C14.49397695 13.62995448 14.49397695 13.62995448 18.62109375 19.46484375 C18.62109375 20.78484375 18.62109375 22.10484375 18.62109375 23.46484375 C11.31379173 22.75193624 6.6268149 19.35439068 1.18359375 14.77734375 C-21.93673051 -3.99050983 -54.81662468 -14.50973696 -84.37890625 -13.53515625 C-83.43015625 -13.33921875 -82.48140625 -13.14328125 -81.50390625 -12.94140625 C-63.37293319 -9.02684175 -45.59869158 -3.48100845 -29.28857422 5.43945312 C-27.29827313 6.50813947 -25.28443948 7.51379077 -23.2578125 8.51171875 C-3.4814003 18.36686917 14.02398494 31.93911438 27.62109375 49.46484375 C27.62109375 50.12484375 27.62109375 50.78484375 27.62109375 51.46484375 C32.98355896 51.07569533 35.01742175 49.54998748 38.55859375 45.58984375 C42.4213293 41.49920096 45.25556648 39.09783031 50.62109375 37.46484375 C50.29109375 36.47484375 49.96109375 35.48484375 49.62109375 34.46484375 C48.83734375 34.38234375 48.05359375 34.29984375 47.24609375 34.21484375 C44.62109375 33.46484375 44.62109375 33.46484375 43.30859375 31.40234375 C43.08171875 30.76296875 42.85484375 30.12359375 42.62109375 29.46484375 C41.63109375 29.54734375 40.64109375 29.62984375 39.62109375 29.71484375 C34.98697308 29.75275067 31.54474709 27.7476966 27.62109375 25.46484375 C32.26711232 14.4923318 46.24621032 7.62684848 56.69140625 3.1484375 C76.8186372 -4.12420195 98.01817608 -2.45171915 117.62109375 5.46484375 C117.31958008 7.33007813 117.31958008 7.33007813 116.62109375 9.46484375 C114.20701395 11.10392376 111.84376507 12.54115433 109.30859375 13.96484375 C96.37356088 21.69589592 88.52939692 30.98656721 80.8515625 43.8125 C75.35066147 52.95120619 69.33002217 58.17392892 58.9921875 61.24609375 C51.60618564 62.8802601 43.03045507 63.21545069 35.75170898 60.85986328 C33.00908503 60.35137634 31.33502582 60.91329151 28.68359375 61.7578125 C27.71671631 62.05679443 26.74983887 62.35577637 25.75366211 62.66381836 C24.71991455 62.99003174 23.68616699 63.31624512 22.62109375 63.65234375 C-6.20229882 72.31773414 -32.7849327 76.23370951 -60.33203125 61.61816406 C-74.69633826 53.52453497 -82.90397508 41.32496818 -91.77246094 27.84985352 C-107.44146024 4.14018351 -129.66819569 -11.29727559 -154.37890625 -24.53515625 C-153.83040749 -29.15930548 -153.83040749 -29.15930548 -151.91015625 -30.7578125 C-101.45895247 -51.61744483 -39.25979575 -35.8299228 0 0 Z M53.62109375 28.46484375 C53.62109375 29.12484375 53.62109375 29.78484375 53.62109375 30.46484375 C54.26046875 31.10421875 54.89984375 31.74359375 55.55859375 32.40234375 C57.62109375 34.46484375 57.62109375 34.46484375 58.62109375 37.46484375 C59.61109375 37.79484375 60.60109375 38.12484375 61.62109375 38.46484375 C61.1426331 34.15869786 59.96182994 32.21603826 56.62109375 29.46484375 C55.63109375 29.13484375 54.64109375 28.80484375 53.62109375 28.46484375 Z M50.62109375 29.46484375 C51.62109375 31.46484375 51.62109375 31.46484375 51.62109375 31.46484375 Z " fill="#044BAC" transform="translate(189.37890625,75.53515625)"/>
<path d="M0 0 C6.74369278 0.61181311 13.11250923 1.84552048 19.6875 3.4375 C27.21110809 5.23018789 34.50227234 6.63924033 42.22265625 7.25 C47.45691019 8.66346942 50.33753149 13.34922439 53.6875 17.375 C59.19037271 23.62826444 65.89090624 27.78252697 73 32 C72.875 33.875 72.875 33.875 72 36 C70.02 36.66 68.04 37.32 66 38 C68.31 43.94 70.62 49.88 73 56 C73.66 53.03 74.32 50.06 75 47 C76.83984375 44.625 76.83984375 44.625 78.9375 43 C79.97197266 42.1646875 79.97197266 42.1646875 81.02734375 41.3125 C85.83852214 38.11139913 91.4381065 38.418312 97 39 C101.03663669 41.05501504 103.92984062 43.69367451 107 47 C107.7734375 45.88625 107.7734375 45.88625 108.5625 44.75 C112.2975594 40.53608683 115.7734888 38.32985351 121.375 37.5 C127.46093582 38.33943942 132.3390362 40.21750226 136.5625 44.75 C137.036875 45.4925 137.51125 46.235 138 47 C138.33 44.69 138.66 42.38 139 40 C143.27114968 38.835141 146.66419545 39.31056111 151 40 C151.06058594 41.20398438 151.12117187 42.40796875 151.18359375 43.6484375 C151.26799732 45.22397077 151.35264541 46.79949096 151.4375 48.375 C151.47681641 49.1690625 151.51613281 49.963125 151.55664062 50.78125 C151.68893404 55.02601221 151.68893404 55.02601221 153 59 C153.99 59.33 154.98 59.66 156 60 C156.33 53.4 156.66 46.8 157 40 C166.27734375 39.90234375 166.27734375 39.90234375 169 40 C170 41 170 41 170.11352539 43.68383789 C170.10828857 44.85164795 170.10305176 46.01945801 170.09765625 47.22265625 C170.09443359 48.48271484 170.09121094 49.74277344 170.08789062 51.04101562 C170.07953403 52.38151109 170.07106907 53.72200588 170.0625 55.0625 C170.0574866 56.40689942 170.05292342 57.7513006 170.04882812 59.09570312 C170.03699488 62.39717941 170.02050971 65.69856803 170 69 C167.2540274 70.3729863 165.0410953 70.12412634 162 70 C161.01 69.67 160.02 69.34 159 69 C158.01 69.495 158.01 69.495 157 70 C152.63529525 70.49923094 148.01803644 71.0268594 144.01171875 68.98828125 C141.51854597 66.92816578 139.79010738 64.68516106 138 62 C137.2575 62.94875 136.515 63.8975 135.75 64.875 C133.7489575 67.43188764 132.06012447 68.85109206 129 70 C122.60083493 70.68626143 116.38221894 70.90210873 111 67 C108.625 64.3125 108.625 64.3125 107 62 C106.46375 62.763125 105.9275 63.52625 105.375 64.3125 C101.99039479 68.142448 99.30884776 69.76848092 94.15625 70.28515625 C88.39402086 70.4491801 83.90893554 70.35874537 79 67 C78.34 66.34 77.68 65.68 77 65 C77 66.32 77 67.64 77 69 C72.72000646 71.13999677 67.50951645 70.09321611 63 69 C62.67 67.68 62.34 66.36 62 65 C58.37 64.67 54.74 64.34 51 64 C50.34 65.65 49.68 67.3 49 69 C48 70 48 70 44.1875 70.125 C41.31082025 70.09401243 38.75227001 69.91742334 36 69 C36.54339792 64.43545749 37.79463821 61.0271824 40 57 C39.3296875 56.88527344 38.659375 56.77054688 37.96875 56.65234375 C23.64143119 53.50410396 10.19955656 46.48564688 1.078125 34.69921875 C-5.35150346 24.5655652 -3.23613391 13.22963599 -1 2 C-0.67 1.34 -0.34 0.68 0 0 Z M56 49 C55.34 50.98 54.68 52.96 54 55 C55.32 55 56.64 55 58 55 C57.67 53.02 57.34 51.04 57 49 C56.67 49 56.34 49 56 49 Z M88 50 C86.69485264 52.21776622 86.69485264 52.21776622 86 55 C87.26333273 57.80167287 87.26333273 57.80167287 89 60 C92.93075644 59.42547254 92.93075644 59.42547254 96 57 C98.3828125 56.5859375 98.3828125 56.5859375 101.125 56.375 C102.03507812 56.30023438 102.94515625 56.22546875 103.8828125 56.1484375 C104.58148438 56.09945312 105.28015625 56.05046875 106 56 C106 55.01 106 54.02 106 53 C105.31292969 52.95101562 104.62585938 52.90203125 103.91796875 52.8515625 C103.01691406 52.77679688 102.11585938 52.70203125 101.1875 52.625 C100.29417969 52.55539063 99.40085937 52.48578125 98.48046875 52.4140625 C96 52 96 52 93 50 C90.37468476 49.83286431 90.37468476 49.83286431 88 50 Z M120 50 C119.34 50.66 118.68 51.32 118 52 C118.32326553 55.59679066 118.32326553 55.59679066 119 59 C121.3015411 59.77802187 121.3015411 59.77802187 124 60 C124.598125 59.525625 125.19625 59.05125 125.8125 58.5625 C128.54661653 56.60955962 130.42318364 56.51052478 133.75 56.3125 C134.73484375 56.24675781 135.7196875 56.18101562 136.734375 56.11328125 C137.48203125 56.07589844 138.2296875 56.03851563 139 56 C139 55.01 139 54.02 139 53 C135.04 53 131.08 53 127 53 C127 52.34 127 51.68 127 51 C123.59679066 50.32326553 123.59679066 50.32326553 120 50 Z M74 59 C75 61 75 61 75 61 Z M75 62 C76 64 76 64 76 64 Z " fill="#35292D" transform="translate(57,110)"/>
<path d="M0 0 C0.598125 0.309375 1.19625 0.61875 1.8125 0.9375 C3.88611988 0.68993555 3.88611988 0.68993555 5.8125 -0.0625 C10.85169178 -1.74223059 15.17127998 -1.61989548 20.125 0.0625 C23.96062729 2.73851904 25.36785447 5.51810523 26.2109375 10.10546875 C26.46473459 12.0432438 26.64464629 13.99039696 26.8125 15.9375 C27.8025 14.6175 28.7925 13.2975 29.8125 11.9375 C29.1525 11.6075 28.4925 11.2775 27.8125 10.9375 C28.17984694 4.57015306 28.17984694 4.57015306 31.1875 1.5625 C36.25040739 -1.57168077 41.01613088 -1.55984836 46.8125 -1.0625 C51.56884717 0.61102956 53.9315409 2.83767359 56.8125 6.9375 C57.534375 5.98875 58.25625 5.04 59 4.0625 C61.39023286 1.23160969 63.11301543 -0.20215475 66.8125 -1.0625 C70.64979506 -1.24522834 73.97474632 -1.20509637 77.75 -0.5625 C81.78749309 0.09668254 85.73156573 0.01911869 89.8125 -0.0625 C90.3075 3.8975 90.3075 3.8975 90.8125 7.9375 C91.18761719 7.45539063 91.56273437 6.97328125 91.94921875 6.4765625 C97.31147148 -0.14183508 97.31147148 -0.14183508 101.8125 -1.0625 C107.81970006 -1.60769127 112.70437708 -1.62630669 117.8125 1.9375 C122.36063305 6.08135455 123.64228381 9.33237558 123.9375 15.4765625 C123.70993696 19.95670985 122.50268794 23.22055447 119.33203125 26.44140625 C115.18062077 29.77583435 111.14784595 31.27280825 105.8125 30.9375 C99.74753939 29.77936682 95.85439789 27.73725375 91.8125 22.9375 C91.4825 22.6075 91.1525 22.2775 90.8125 21.9375 C90.73773438 22.81792969 90.66296875 23.69835937 90.5859375 24.60546875 C89.37685334 35.28571216 89.37685334 35.28571216 86.3125 38.125 C79.71548299 41.54131238 73.1431122 42.88315599 65.8671875 40.90234375 C62.27265781 39.21441821 59.54826623 36.51468779 57.8125 32.9375 C58.1640625 30.7109375 58.1640625 30.7109375 58.8125 28.9375 C60.7925 28.6075 62.7725 28.2775 64.8125 27.9375 C63.843125 27.15375 62.87375 26.37 61.875 25.5625 C59.97287654 24.02461295 58.91620043 23.14490087 57.8125 20.9375 C57.626875 22.8865625 57.626875 22.8865625 57.4375 24.875 C57.2265625 27.08984375 57.2265625 27.08984375 56.8125 28.9375 C54.0665274 30.3104863 51.8535953 30.06162634 48.8125 29.9375 C47.3275 29.4425 47.3275 29.4425 45.8125 28.9375 C44.3275 29.4325 44.3275 29.4325 42.8125 29.9375 C38.1290833 30.35027571 34.08069158 30.50689214 29.75 28.5625 C27.8125 26.9375 27.8125 26.9375 26.8125 24.9375 C26.626875 25.8965625 26.626875 25.8965625 26.4375 26.875 C26.23125 27.555625 26.025 28.23625 25.8125 28.9375 C23.44636544 30.12056728 21.94469264 30.07104608 19.3125 30.0625 C18.5184375 30.06507813 17.724375 30.06765625 16.90625 30.0703125 C14.8125 29.9375 14.8125 29.9375 12.8125 28.9375 C12.3175 20.0275 12.3175 20.0275 11.8125 10.9375 C10.8225 10.9375 9.8325 10.9375 8.8125 10.9375 C8.4825 16.8775 8.1525 22.8175 7.8125 28.9375 C5.44636544 30.12056728 3.94469264 30.07104608 1.3125 30.0625 C0.5184375 30.06507813 -0.275625 30.06765625 -1.09375 30.0703125 C-3.1875 29.9375 -3.1875 29.9375 -5.1875 28.9375 C-5.5175 22.9975 -5.8475 17.0575 -6.1875 10.9375 C-7.5075 10.6075 -8.8275 10.2775 -10.1875 9.9375 C-10.5175 16.2075 -10.8475 22.4775 -11.1875 28.9375 C-18.1875 29.9375 -18.1875 29.9375 -23.1875 28.9375 C-23.1875 19.3675 -23.1875 9.7975 -23.1875 -0.0625 C-19.5575 -0.0625 -15.9275 -0.0625 -12.1875 -0.0625 C-8.06439931 -1.4368669 -4.00440468 -1.94499656 0 0 Z M39.8125 8.9375 C39.4825 9.5975 39.1525 10.2575 38.8125 10.9375 C40.7925 10.9375 42.7725 10.9375 44.8125 10.9375 C44.4825 10.2775 44.1525 9.6175 43.8125 8.9375 C42.4925 8.9375 41.1725 8.9375 39.8125 8.9375 Z M69.9375 10.0625 C68.58381609 11.93950371 68.58381609 11.93950371 68.875 14.5 C69.59155218 17.08411024 69.59155218 17.08411024 71.875 18.25 C72.514375 18.476875 73.15375 18.70375 73.8125 18.9375 C75.1325 17.9475 76.4525 16.9575 77.8125 15.9375 C77.4825 13.9575 77.1525 11.9775 76.8125 9.9375 C73.26283356 8.80309731 73.26283356 8.80309731 69.9375 10.0625 Z M104.8125 8.9375 C104.4825 9.5975 104.1525 10.2575 103.8125 10.9375 C106.1225 10.9375 108.4325 10.9375 110.8125 10.9375 C110.4825 10.2775 110.1525 9.6175 109.8125 8.9375 C108.1625 8.9375 106.5125 8.9375 104.8125 8.9375 Z M38.8125 18.9375 C38.8125 19.5975 38.8125 20.2575 38.8125 20.9375 C40.4625 20.9375 42.1125 20.9375 43.8125 20.9375 C43.8125 20.2775 43.8125 19.6175 43.8125 18.9375 C42.1625 18.9375 40.5125 18.9375 38.8125 18.9375 Z M103.8125 18.9375 C104.4725 19.5975 105.1325 20.2575 105.8125 20.9375 C107.92070797 20.6189823 107.92070797 20.6189823 109.8125 19.9375 C109.8125 19.6075 109.8125 19.2775 109.8125 18.9375 C107.8325 18.9375 105.8525 18.9375 103.8125 18.9375 Z M69.8125 29.9375 C70.4725 30.5975 71.1325 31.2575 71.8125 31.9375 C74.41530568 31.61708603 74.41530568 31.61708603 76.8125 30.9375 C76.8125 29.9475 76.8125 28.9575 76.8125 27.9375 C72.85792152 27.58926193 72.85792152 27.58926193 69.8125 29.9375 Z " fill="#987B86" transform="translate(321.1875,150.0625)"/>
<path d="M0 0 C-0.30151367 1.86523438 -0.30151367 1.86523438 -1 4 C-3.4140798 5.63908001 -5.77732868 7.07631058 -8.3125 8.5 C-21.24753287 16.23105217 -29.09169683 25.52172346 -36.76953125 38.34765625 C-42.27043228 47.48636244 -48.29107158 52.70908517 -58.62890625 55.78125 C-66.01490811 57.41541635 -74.59063868 57.75060694 -81.86938477 55.39501953 C-84.61200872 54.88653259 -86.28606793 55.44844776 -88.9375 56.29296875 C-89.90437744 56.59195068 -90.87125488 56.89093262 -91.86743164 57.19897461 C-92.9011792 57.52518799 -93.93492676 57.85140137 -95 58.1875 C-123.69261514 66.8135738 -148.90335856 70.25497085 -176.60546875 56.83984375 C-180 55 -180 55 -181 53 C-180.47792969 53.18175781 -179.95585937 53.36351562 -179.41796875 53.55078125 C-152.85347158 62.62271986 -125.67856791 61.7627743 -99 53 C-96.67132955 52.31568736 -94.33655266 51.65715543 -92 51 C-94.17292234 46.18335549 -96.81675632 42.50402537 -100.25 38.5625 C-100.74234131 37.99120361 -101.23468262 37.41990723 -101.74194336 36.83129883 C-114.35077955 22.31159424 -129.90741827 10.80105835 -147 2 C-146.34 1.67 -145.68 1.34 -145 1 C-123.56038345 10.2394538 -104.28813909 25.58358057 -90 44 C-90 44.66 -90 45.32 -90 46 C-84.63753479 45.61085158 -82.603672 44.08514373 -79.0625 40.125 C-75.19976445 36.03435721 -72.36552727 33.63298656 -67 32 C-67.33 31.01 -67.66 30.02 -68 29 C-68.78375 28.9175 -69.5675 28.835 -70.375 28.75 C-73 28 -73 28 -74.3125 25.9375 C-74.539375 25.298125 -74.76625 24.65875 -75 24 C-76.485 24.12375 -76.485 24.12375 -78 24.25 C-82.63412067 24.28790692 -86.07634666 22.28285285 -90 20 C-85.35398143 9.02748805 -71.37488343 2.16200473 -60.9296875 -2.31640625 C-40.80245655 -9.5890457 -19.60291767 -7.9165629 0 0 Z M-64 23 C-64 23.66 -64 24.32 -64 25 C-63.360625 25.639375 -62.72125 26.27875 -62.0625 26.9375 C-60 29 -60 29 -59 32 C-58.01 32.33 -57.02 32.66 -56 33 C-56.47846065 28.69385411 -57.65926381 26.75119451 -61 24 C-61.99 23.67 -62.98 23.34 -64 23 Z M-67 24 C-66 26 -66 26 -66 26 Z " fill="#034AAB" transform="translate(307,81)"/>
<path d="M0 0 C6.74369278 0.61181311 13.11250923 1.84552048 19.6875 3.4375 C27.21110809 5.23018789 34.50227234 6.63924033 42.22265625 7.25 C47.45691019 8.66346942 50.33753149 13.34922439 53.6875 17.375 C59.19037271 23.62826444 65.89090624 27.78252697 73 32 C72.875 33.875 72.875 33.875 72 36 C68.9375 37.25 68.9375 37.25 66 38 C66.34224609 38.81404297 66.34224609 38.81404297 66.69140625 39.64453125 C66.97886719 40.35996094 67.26632813 41.07539063 67.5625 41.8125 C67.85253906 42.52019531 68.14257812 43.22789062 68.44140625 43.95703125 C69 46 69 46 68 49 C67.32404685 47.58774074 66.65959941 46.16997095 66 44.75 C65.62875 43.96109375 65.2575 43.1721875 64.875 42.359375 C64 40 64 40 64 36 C62.08063787 36.42551896 60.16457126 36.86591938 58.25 37.3125 C57.18265625 37.55613281 56.1153125 37.79976562 55.015625 38.05078125 C51.91278451 39.02745255 50.27195104 39.69362546 48 42 C46.82323146 44.34227614 45.81625779 46.56966241 44.875 49 C43.46128967 52.53790073 42.12792081 55.80811878 40 59 C40 58.34 40 57.68 40 57 C39.3296875 56.88527344 38.659375 56.77054688 37.96875 56.65234375 C23.64143119 53.50410396 10.19955656 46.48564688 1.078125 34.69921875 C-5.35150346 24.5655652 -3.23613391 13.22963599 -1 2 C-0.67 1.34 -0.34 0.68 0 0 Z " fill="#064BAB" transform="translate(57,110)"/>
<path d="M0 0 C0.92554688 0.01869141 1.85109375 0.03738281 2.8046875 0.05664062 C9.56137458 0.32862591 15.25991673 1.54907627 20.3984375 6.18774414 C23.31052762 9.41913315 24.78207141 12.63949991 25.875 16.8125 C26.6175 15.86375 27.36 14.915 28.125 13.9375 C30.12384096 11.38342543 31.82490736 9.97417788 34.875 8.8125 C40.99606163 8.10053362 46.73669056 8.08722566 51.875 11.8125 C54.7946362 15.83958441 56.00582883 19.31900389 55.97265625 24.26171875 C55.96782227 25.53305664 55.96782227 25.53305664 55.96289062 26.83007812 C55.95032227 28.15168945 55.95032227 28.15168945 55.9375 29.5 C55.93298828 30.39267578 55.92847656 31.28535156 55.92382812 32.20507812 C55.91204983 34.40761987 55.89560164 36.61002599 55.875 38.8125 C47.58928571 39.95535714 47.58928571 39.95535714 43.875 38.8125 C42.885 39.3075 42.885 39.3075 41.875 39.8125 C36.70588317 40.40373885 31.54175337 40.96419347 27.25 37.625 C24.88710267 34.82683211 24.08103143 33.41805003 23.875 29.8125 C23.194375 30.740625 22.51375 31.66875 21.8125 32.625 C17.61361987 37.65416716 12.16781468 38.97496711 5.875 39.8125 C3.31375711 39.9029281 0.75033366 39.94260017 -1.8125 39.9375 C-3.11574219 39.94007813 -4.41898438 39.94265625 -5.76171875 39.9453125 C-9.125 39.8125 -9.125 39.8125 -12.125 38.8125 C-12.125 26.2725 -12.125 13.7325 -12.125 0.8125 C-8.43279909 -1.03360045 -4.04701334 -0.16221045 0 0 Z M0.875 12.8125 C0.875 17.7625 0.875 22.7125 0.875 27.8125 C3.040625 27.6578125 3.040625 27.6578125 5.25 27.5 C6.06210938 27.44199219 6.87421875 27.38398438 7.7109375 27.32421875 C10.25421338 26.98259472 10.25421338 26.98259472 11.875 23.8125 C12.34677003 21.09159377 12.32340094 18.53696138 11.875 15.8125 C10.43351025 13.62702316 10.43351025 13.62702316 7.875 12.8125 C5.565 12.8125 3.255 12.8125 0.875 12.8125 Z M38.875 18.8125 C38.545 19.4725 38.215 20.1325 37.875 20.8125 C39.525 20.8125 41.175 20.8125 42.875 20.8125 C42.875 20.1525 42.875 19.4925 42.875 18.8125 C41.555 18.8125 40.235 18.8125 38.875 18.8125 Z M25.875 19.8125 C25.545 22.1225 25.215 24.4325 24.875 26.8125 C26.855 25.1625 28.835 23.5125 30.875 21.8125 C28.49337991 20.39864089 28.49337991 20.39864089 25.875 19.8125 Z M36.875 28.8125 C36.875 29.4725 36.875 30.1325 36.875 30.8125 C38.525 30.8125 40.175 30.8125 41.875 30.8125 C42.205 30.1525 42.535 29.4925 42.875 28.8125 C40.895 28.8125 38.915 28.8125 36.875 28.8125 Z " fill="#1F181B" transform="translate(241.125,140.1875)"/>
<path d="M0 0 C-0.30151367 1.86523438 -0.30151367 1.86523438 -1 4 C-3.4140798 5.63908001 -5.77732868 7.07631058 -8.3125 8.5 C-21.24753287 16.23105217 -29.09169683 25.52172346 -36.76953125 38.34765625 C-42.27043228 47.48636244 -48.29107158 52.70908517 -58.62890625 55.78125 C-66.01490811 57.41541635 -74.59063868 57.75060694 -81.86938477 55.39501953 C-84.61200872 54.88653259 -86.28606793 55.44844776 -88.9375 56.29296875 C-89.90437744 56.59195068 -90.87125488 56.89093262 -91.86743164 57.19897461 C-92.9011792 57.52518799 -93.93492676 57.85140137 -95 58.1875 C-123.69261514 66.8135738 -148.90335856 70.25497085 -176.60546875 56.83984375 C-180 55 -180 55 -181 53 C-180.47792969 53.18175781 -179.95585937 53.36351562 -179.41796875 53.55078125 C-152.85347158 62.62271986 -125.67856791 61.7627743 -99 53 C-96.67132955 52.31568736 -94.33655266 51.65715543 -92 51 C-94.17292234 46.18335549 -96.81675632 42.50402537 -100.25 38.5625 C-100.74234131 37.99120361 -101.23468262 37.41990723 -101.74194336 36.83129883 C-114.35077955 22.31159424 -129.90741827 10.80105835 -147 2 C-146.34 1.67 -145.68 1.34 -145 1 C-123.56038345 10.2394538 -104.28813909 25.58358057 -90 44 C-90 44.66 -90 45.32 -90 46 C-89.34 46.33 -88.68 46.66 -88 47 C-86.875 49.0625 -86.875 49.0625 -86 51 C-73.11926753 51.54941513 -61.67614928 51.26946818 -51 43 C-49.11602906 40.7330797 -47.55848605 38.31087206 -46 35.8125 C-45.56703613 35.143396 -45.13407227 34.47429199 -44.68798828 33.78491211 C-42.86903877 30.97074612 -41.08503752 28.13558978 -39.3046875 25.296875 C-34.0728849 17.12039661 -27.6355068 11.27121441 -19.8125 5.625 C-19.21824219 5.19582275 -18.62398437 4.76664551 -18.01171875 4.32446289 C-12.66798818 0.57351748 -6.52322763 -3.26161381 0 0 Z " fill="#EAE8EF" transform="translate(307,81)"/>
<path d="M0 0 C0.598125 0.309375 1.19625 0.61875 1.8125 0.9375 C3.88611988 0.68993555 3.88611988 0.68993555 5.8125 -0.0625 C10.94824043 -1.77441348 15.24379969 -1.63293648 20.25 0.1875 C22.8125 1.9375 22.8125 1.9375 23.46655273 3.72167969 C23.85822221 6.23035444 23.92492122 8.60105084 23.91015625 11.140625 C23.90693359 12.1203125 23.90371094 13.1 23.90039062 14.109375 C23.88782227 15.63304687 23.88782227 15.63304687 23.875 17.1875 C23.87048828 18.21875 23.86597656 19.25 23.86132812 20.3125 C23.84956088 22.85422573 23.83312011 25.39583319 23.8125 27.9375 C20.8425 27.9375 17.8725 27.9375 14.8125 27.9375 C14.4825 22.3275 14.1525 16.7175 13.8125 10.9375 C11.3375 9.9475 11.3375 9.9475 8.8125 8.9375 C8.4825 15.5375 8.1525 22.1375 7.8125 28.9375 C5.44636544 30.12056728 3.94469264 30.07104608 1.3125 30.0625 C0.5184375 30.06507813 -0.275625 30.06765625 -1.09375 30.0703125 C-3.1875 29.9375 -3.1875 29.9375 -5.1875 28.9375 C-5.5175 22.9975 -5.8475 17.0575 -6.1875 10.9375 C-7.5075 10.6075 -8.8275 10.2775 -10.1875 9.9375 C-10.5175 16.2075 -10.8475 22.4775 -11.1875 28.9375 C-18.1875 29.9375 -18.1875 29.9375 -23.1875 28.9375 C-23.1875 19.3675 -23.1875 9.7975 -23.1875 -0.0625 C-19.5575 -0.0625 -15.9275 -0.0625 -12.1875 -0.0625 C-8.06439931 -1.4368669 -4.00440468 -1.94499656 0 0 Z " fill="#271D21" transform="translate(321.1875,150.0625)"/>
<path d="M0 0 C3.3 -0.0825 6.6 -0.165 10 -0.25 C11.02351562 -0.28641602 12.04703125 -0.32283203 13.1015625 -0.36035156 C19.92905195 -0.4422603 25.48400978 0.65256579 30.55834961 5.48364258 C35.00588548 10.57520116 35.2919243 14.78154196 35.21484375 21.2734375 C34.83723613 26.06562154 33.11380063 28.82068168 29.875 32.25 C20.73068778 37.81610309 10.49422118 36 0 36 C0 24.12 0 12.24 0 0 Z M12 11 C12 15.95 12 20.9 12 26 C14.165625 25.8453125 14.165625 25.8453125 16.375 25.6875 C17.18710938 25.62949219 17.99921875 25.57148438 18.8359375 25.51171875 C21.37921338 25.17009472 21.37921338 25.17009472 23 22 C23.47177003 19.27909377 23.44840094 16.72446138 23 14 C21.55851025 11.81452316 21.55851025 11.81452316 19 11 C16.69 11 14.38 11 12 11 Z " fill="#150F11" transform="translate(230,142)"/>
<path d="M0 0 C0.93585938 0.00644531 1.87171875 0.01289063 2.8359375 0.01953125 C5.625 0.1875 5.625 0.1875 8.4140625 0.76171875 C9.14367187 0.90222656 9.87328125 1.04273438 10.625 1.1875 C10.955 0.8575 11.285 0.5275 11.625 0.1875 C13.95797433 0.14657063 16.29205225 0.14508277 18.625 0.1875 C18.69955949 4.20759457 18.75379358 8.22741733 18.78979492 12.24804688 C18.80481428 13.61367816 18.82523608 14.97926176 18.85131836 16.34472656 C18.88800137 18.31553905 18.90318551 20.28671408 18.91796875 22.2578125 C18.9336792 23.44133301 18.94938965 24.62485352 18.96557617 25.84423828 C18.50452255 30.37016535 17.00272762 33.70667711 13.90234375 37.0390625 C10.6154321 38.69661314 7.84833684 38.5842691 4.1875 38.5625 C2.88941406 38.57023437 1.59132813 38.57796875 0.25390625 38.5859375 C-4.50428299 38.06350983 -7.0381683 36.5243317 -10.375 33.1875 C-10.375 31.8675 -10.375 30.5475 -10.375 29.1875 C-8.91707116 29.13350264 -7.45857288 29.09470823 -6 29.0625 C-4.78183594 29.02769531 -4.78183594 29.02769531 -3.5390625 28.9921875 C-1.375 29.1875 -1.375 29.1875 0.625 31.1875 C3.125 31.52083333 3.125 31.52083333 5.625 31.1875 C7.7635485 29.0489515 8.05155063 28.05474686 8.625 25.1875 C7.965 25.5175 7.305 25.8475 6.625 26.1875 C2.03680634 26.78860663 -2.46973018 27.23457002 -6.62109375 24.953125 C-10.11840235 22.01567661 -12.06516502 19.85411253 -12.61328125 15.13671875 C-12.7944823 9.61485507 -12.09603642 6.54642838 -8.375 2.1875 C-5.02734419 -0.04427054 -3.90438715 -0.05883323 0 0 Z M-0.25 9.3125 C-1.60368391 11.18950371 -1.60368391 11.18950371 -1.3125 13.75 C-0.59594782 16.33411024 -0.59594782 16.33411024 1.6875 17.5 C2.326875 17.726875 2.96625 17.95375 3.625 18.1875 C4.945 17.1975 6.265 16.2075 7.625 15.1875 C7.295 13.2075 6.965 11.2275 6.625 9.1875 C3.07533356 8.05309731 3.07533356 8.05309731 -0.25 9.3125 Z " fill="#100A0C" transform="translate(391.375,150.8125)"/>
<path d="M0 0 C0.67057887 1.7902061 1.3363469 3.58221489 2 5.375 C2.556875 6.87160156 2.556875 6.87160156 3.125 8.3984375 C4 11 4 11 4 13 C4.66 13 5.32 13 6 13 C9.06997835 19.1399567 10.05542371 25.23238872 11 32 C7.7 32 4.4 32 1 32 C0.34 30.68 -0.32 29.36 -1 28 C-5.29 28 -9.58 28 -14 28 C-14.66 29.32 -15.32 30.64 -16 32 C-19.3 32 -22.6 32 -26 32 C-25.35730302 26.99166625 -23.9175398 22.61996371 -22.125 17.9375 C-21.86847656 17.24333984 -21.61195312 16.54917969 -21.34765625 15.83398438 C-18.97564492 9.55828605 -16.93852278 4.97886606 -10.83984375 1.78125 C-7.26100519 0.26157333 -3.84402212 0 0 0 Z M-8 13 C-8.66 14.98 -9.32 16.96 -10 19 C-8.68 19 -7.36 19 -6 19 C-6.33 17.02 -6.66 15.04 -7 13 C-7.33 13 -7.66 13 -8 13 Z " fill="#0A0607" transform="translate(121,146)"/>
<path d="M0 0 C9.27734375 -0.09765625 9.27734375 -0.09765625 12 0 C13 1 13 1 13.11352539 3.68383789 C13.10828857 4.85164795 13.10305176 6.01945801 13.09765625 7.22265625 C13.09443359 8.48271484 13.09121094 9.74277344 13.08789062 11.04101562 C13.07953403 12.38151109 13.07106907 13.72200588 13.0625 15.0625 C13.0574866 16.40689942 13.05292342 17.7513006 13.04882812 19.09570312 C13.03699488 22.39717941 13.02050971 25.69856803 13 29 C10.2540274 30.3729863 8.0410953 30.12412634 5 30 C4.01 29.67 3.02 29.34 2 29 C1.34 29.33 0.68 29.66 0 30 C-2.390625 30.2734375 -2.390625 30.2734375 -5.25 30.375 C-6.18328125 30.42398438 -7.1165625 30.47296875 -8.078125 30.5234375 C-11.23776438 29.95740585 -13.44709693 29.05817082 -15.83984375 26.87207031 C-18.4349467 22.68451783 -17.59125189 17.43117938 -17.375 12.6875 C-17.34792969 11.56537109 -17.32085937 10.44324219 -17.29296875 9.28710938 C-17.22239001 6.52277541 -17.12384488 3.76237585 -17 1 C-13.7 1 -10.4 1 -7 1 C-6.67 6.94 -6.34 12.88 -6 19 C-3.525 19.99 -3.525 19.99 -1 21 C-0.67 14.07 -0.34 7.14 0 0 Z " fill="#080405" transform="translate(214,150)"/>
<path d="M0 0 C4.29464286 3.96428571 4.29464286 3.96428571 5.4375 6.25 C5.4375 8.89 5.4375 11.53 5.4375 14.25 C-1.1625 14.25 -7.7625 14.25 -14.5625 14.25 C-13.9025 15.57 -13.2425 16.89 -12.5625 18.25 C-10.56295254 18.29254356 -8.56208364 18.29080783 -6.5625 18.25 C-6.2325 17.92 -5.9025 17.59 -5.5625 17.25 C-3.87641034 17.17794489 -2.18749341 17.16613932 -0.5 17.1875 C0.41910156 17.19652344 1.33820313 17.20554688 2.28515625 17.21484375 C2.99542969 17.22644531 3.70570313 17.23804688 4.4375 17.25 C4.80368859 21.79684162 4.80368859 21.79684162 3.1875 23.796875 C-2.13710658 27.45754203 -6.4470241 28.84974272 -12.89453125 27.91015625 C-17.19607328 26.81872021 -19.98942388 25.37577844 -22.625 21.75 C-25.25268677 16.76107022 -25.7382766 11.74512257 -24.5625 6.25 C-19.48405259 -2.7801143 -9.06921181 -4.45505141 0 0 Z M-11.5625 6.25 C-11.8925 6.91 -12.2225 7.57 -12.5625 8.25 C-10.2525 8.25 -7.9425 8.25 -5.5625 8.25 C-5.8925 7.59 -6.2225 6.93 -6.5625 6.25 C-8.2125 6.25 -9.8625 6.25 -11.5625 6.25 Z " fill="#140D0F" transform="translate(437.5625,152.75)"/>
<path d="M0 0 C1.54300781 -0.03867188 1.54300781 -0.03867188 3.1171875 -0.078125 C7.37518858 0.38638421 9.90306732 1.88915711 12.75073242 5.06054688 C14.36434358 7.63131697 14.47580558 9.00810982 14.41796875 12.015625 C14.40830078 12.90507812 14.39863281 13.79453125 14.38867188 14.7109375 C14.36353516 15.63132813 14.33839844 16.55171875 14.3125 17.5 C14.29219727 18.90378906 14.29219727 18.90378906 14.27148438 20.3359375 C14.23619954 22.64121327 14.18690281 24.9453106 14.125 27.25 C11.815 27.25 9.505 27.25 7.125 27.25 C7.125 26.59 7.125 25.93 7.125 25.25 C6.05958984 25.73726562 6.05958984 25.73726562 4.97265625 26.234375 C1.97087706 27.3049684 -0.26475709 27.51765086 -3.4375 27.5 C-4.36691406 27.50515625 -5.29632813 27.5103125 -6.25390625 27.515625 C-8.96516652 27.24086241 -10.59494516 26.71833464 -12.875 25.25 C-14.44200442 22.11599115 -14.72664561 18.61844905 -13.875 15.25 C-11.13734792 12.32372012 -9.54961697 11.32908757 -5.54296875 10.859375 C-3.82013672 10.92898437 -3.82013672 10.92898437 -2.0625 11 C-0.90105469 11.03609375 0.26039063 11.0721875 1.45703125 11.109375 C2.33746094 11.15578125 3.21789062 11.2021875 4.125 11.25 C3.465 9.93 2.805 8.61 2.125 7.25 C-1.16575996 7.62904208 -1.16575996 7.62904208 -3.875 9.25 C-5.39428038 9.32179964 -6.91667482 9.33392007 -8.4375 9.3125 C-9.26378906 9.30347656 -10.09007812 9.29445312 -10.94140625 9.28515625 C-11.57949219 9.27355469 -12.21757812 9.26195312 -12.875 9.25 C-12.3797783 5.58535945 -11.8541794 3.54167646 -8.875 1.25 C-5.71490467 0.19663489 -3.3196864 0.04967112 0 0 Z M-2.875 18.25 C-2.875 18.91 -2.875 19.57 -2.875 20.25 C-1.225 20.25 0.425 20.25 2.125 20.25 C2.125 19.59 2.125 18.93 2.125 18.25 C0.475 18.25 -1.175 18.25 -2.875 18.25 Z " fill="#0B0608" transform="translate(362.875,150.75)"/>
<path d="M0 0 C3.35494434 1.33824311 5.45631051 3.45631051 8 6 C8.125 8.625 8.125 8.625 8 11 C5.36 11 2.72 11 0 11 C-0.33 10.01 -0.66 9.02 -1 8 C-5.0100934 7.82135369 -5.0100934 7.82135369 -9 8 C-11.37994368 9.94332332 -11.37994368 9.94332332 -11.25 13.5 C-11.37994368 17.05667668 -11.37994368 17.05667668 -9 19 C-6.04211431 19.4167552 -6.04211431 19.4167552 -3 19 C-2.53851563 18.50242188 -2.07703125 18.00484375 -1.6015625 17.4921875 C0 16 0 16 2.26171875 15.70703125 C3.06222656 15.74183594 3.86273438 15.77664062 4.6875 15.8125 C5.89986328 15.85310547 5.89986328 15.85310547 7.13671875 15.89453125 C7.75160156 15.92933594 8.36648437 15.96414062 9 16 C8.58443583 20.84824868 6.62551755 22.88036862 3 26 C-1.50080463 28.71746695 -5.88362796 28.51811362 -11 28 C-15.73829769 26.33282118 -18.2011938 24.14637955 -21 20 C-22.4767774 15.5696678 -22.73822013 11.72251363 -20.875 7.375 C-14.75937193 -0.37146222 -9.84562594 -1.3886461 0 0 Z " fill="#0B0608" transform="translate(154,151)"/>
<path d="M0 0 C2.28756666 2.00859511 4.49093161 4.0190802 6.5625 6.25 C7.2225 5.92 7.8825 5.59 8.5625 5.25 C8.3975 5.745 8.2325 6.24 8.0625 6.75 C7.06404667 11.74226666 7.04625789 15.80995623 8.75 20.5625 C10.74632331 23.5225656 12.38131581 24.70019232 15.5625 26.25 C16.2225 26.58 16.8825 26.91 17.5625 27.25 C19.7697923 27.32092842 21.97917452 27.33415025 24.1875 27.3125 C25.97027344 27.29896484 25.97027344 27.29896484 27.7890625 27.28515625 C29.16191406 27.26775391 29.16191406 27.26775391 30.5625 27.25 C27.9006996 29.9118004 26.52000737 29.54866602 22.8125 29.5625 C17.98172681 29.47004501 14.57575667 29.15961109 10.5625 26.25 C8.1875 23.5625 8.1875 23.5625 6.5625 21.25 C6.02625 22.013125 5.49 22.77625 4.9375 23.5625 C1.55289479 27.392448 -1.12865224 29.01848092 -6.28125 29.53515625 C-12.04347914 29.6991801 -16.52856446 29.60874537 -21.4375 26.25 C-22.0975 25.59 -22.7575 24.93 -23.4375 24.25 C-23.4375 25.57 -23.4375 26.89 -23.4375 28.25 C-27.71749354 30.38999677 -32.92798355 29.34321611 -37.4375 28.25 C-37.7675 26.93 -38.0975 25.61 -38.4375 24.25 C-42.0675 23.92 -45.6975 23.59 -49.4375 23.25 C-50.4275 25.725 -50.4275 25.725 -51.4375 28.25 C-52.4375 29.25 -52.4375 29.25 -56.25 29.375 C-59.12667975 29.34401243 -61.68522999 29.16742334 -64.4375 28.25 C-63.9580537 24.03087253 -63.27124881 21.45336822 -60.4375 18.25 C-61.0975 21.22 -61.7575 24.19 -62.4375 27.25 C-59.1375 27.25 -55.8375 27.25 -52.4375 27.25 C-51.7775 25.6 -51.1175 23.95 -50.4375 22.25 C-48.31277424 22.19613371 -46.18766348 22.15726929 -44.0625 22.125 C-42.87914063 22.10179687 -41.69578125 22.07859375 -40.4765625 22.0546875 C-37.4375 22.25 -37.4375 22.25 -35.4375 24.25 C-35.4375 25.24 -35.4375 26.23 -35.4375 27.25 C-32.1375 27.25 -28.8375 27.25 -25.4375 27.25 C-25.93056641 26.22326172 -25.93056641 26.22326172 -26.43359375 25.17578125 C-28.34358535 19.60930768 -27.64825022 13.93219811 -26.4375 8.25 C-21.06103903 -1.42186411 -10.01292649 -5.09748985 0 0 Z M-24.4375 7.25 C-26.00590852 11.95522555 -25.98645539 15.77648816 -24.25 20.4375 C-21.64745401 24.47593343 -18.99630664 26.73039779 -14.4375 28.25 C-8.5029515 28.7811472 -3.44432791 28.82630565 1.5625 25.25 C4.83253966 21.20997747 4.83253966 21.20997747 5.5625 16.25 C4.12594146 16.16868537 2.6880517 16.11066441 1.25 16.0625 C0.44949219 16.02769531 -0.35101563 15.99289063 -1.17578125 15.95703125 C-3.96056185 16.31775413 -4.57623161 17.24315755 -6.4375 19.25 C-9.5 19.5625 -9.5 19.5625 -12.4375 19.25 C-14.4375 17.25 -14.4375 17.25 -14.6875 13.75 C-14.4375 10.25 -14.4375 10.25 -12.4375 8.25 C-9.74910615 7.98008094 -7.14608064 8.16262643 -4.4375 8.25 C-4.1075 9.24 -3.7775 10.23 -3.4375 11.25 C-0.7975 11.25 1.8425 11.25 4.5625 11.25 C5.06629029 8.96305777 5.06629029 8.96305777 4.5625 6.25 C-1.35921706 0.5857489 -5.06042111 -0.26497365 -13.0859375 -0.23828125 C-18.27131413 0.51716406 -21.31240393 3.15050599 -24.4375 7.25 Z M-12.4375 9.25 C-13.74264736 11.46776622 -13.74264736 11.46776622 -14.4375 14.25 C-13.17416727 17.05167287 -13.17416727 17.05167287 -11.4375 19.25 C-7.50674356 18.67547254 -7.50674356 18.67547254 -4.4375 16.25 C-2.0546875 15.8359375 -2.0546875 15.8359375 0.6875 15.625 C1.59757812 15.55023438 2.50765625 15.47546875 3.4453125 15.3984375 C4.14398438 15.34945312 4.84265625 15.30046875 5.5625 15.25 C5.5625 14.26 5.5625 13.27 5.5625 12.25 C4.87542969 12.20101562 4.18835938 12.15203125 3.48046875 12.1015625 C2.57941406 12.02679688 1.67835938 11.95203125 0.75 11.875 C-0.14332031 11.80539063 -1.03664063 11.73578125 -1.95703125 11.6640625 C-4.4375 11.25 -4.4375 11.25 -7.4375 9.25 C-10.06281524 9.08286431 -10.06281524 9.08286431 -12.4375 9.25 Z M-26.4375 18.25 C-25.4375 20.25 -25.4375 20.25 -25.4375 20.25 Z M-25.4375 21.25 C-24.4375 23.25 -24.4375 23.25 -24.4375 23.25 Z " fill="#987C86" transform="translate(157.4375,150.75)"/>
<path d="M0 0 C0.92554688 0.01869141 1.85109375 0.03738281 2.8046875 0.05664062 C9.56137458 0.32862591 15.25991673 1.54907627 20.3984375 6.18774414 C23.31052762 9.41913315 24.78207141 12.63949991 25.875 16.8125 C27.525 14.8325 29.175 12.8525 30.875 10.8125 C31.535 11.1425 32.195 11.4725 32.875 11.8125 C31.9159375 12.9571875 31.9159375 12.9571875 30.9375 14.125 C28.73267219 16.69496713 28.73267219 16.69496713 27.875 19.8125 C30.845 19.8125 33.815 19.8125 36.875 19.8125 C37.37 18.3275 37.37 18.3275 37.875 16.8125 C40.25 16.6875 40.25 16.6875 42.875 16.8125 C44.875 18.8125 44.875 18.8125 44.875 22.8125 C43.82699219 22.84988281 42.77898437 22.88726562 41.69921875 22.92578125 C40.32027695 22.99144515 38.94137229 23.05789235 37.5625 23.125 C36.87220703 23.14755859 36.18191406 23.17011719 35.47070312 23.19335938 C32.53091474 23.34958001 30.37271122 23.46678442 27.91796875 25.171875 C26.25559454 27.78684566 26.50546854 29.79465978 26.875 32.8125 C27.86095656 35.07816801 27.86095656 35.07816801 29.875 36.8125 C33.29127532 37.51522776 33.29127532 37.51522776 37.0625 37.5625 C38.97095703 37.64757812 38.97095703 37.64757812 40.91796875 37.734375 C41.89378906 37.76015625 42.86960937 37.7859375 43.875 37.8125 C41.31926183 40.36823817 40.17801573 40.16748461 36.625 40.25 C32.83479532 40.18036369 30.28238387 39.97694652 27.25 37.625 C24.88710267 34.82683211 24.08103143 33.41805003 23.875 29.8125 C23.194375 30.740625 22.51375 31.66875 21.8125 32.625 C17.61361987 37.65416716 12.16781468 38.97496711 5.875 39.8125 C3.31375711 39.9029281 0.75033366 39.94260017 -1.8125 39.9375 C-3.11574219 39.94007813 -4.41898438 39.94265625 -5.76171875 39.9453125 C-9.125 39.8125 -9.125 39.8125 -12.125 38.8125 C-12.125 26.2725 -12.125 13.7325 -12.125 0.8125 C-8.43279909 -1.03360045 -4.04701334 -0.16221045 0 0 Z M-11.125 1.8125 C-11.125 13.6925 -11.125 25.5725 -11.125 37.8125 C4.79690816 38.90823242 4.79690816 38.90823242 19.3125 33.5 C23.98552595 28.59902156 24.27014287 23.99670204 24.12109375 17.46484375 C23.63656692 12.24272122 21.72416045 9.62474043 18 6.0625 C13.61023344 2.90186808 10.20384932 1.55079633 4.79296875 1.6171875 C3.9527417 1.62218262 3.11251465 1.62717773 2.24682617 1.63232422 C0.67058472 1.65963623 0.67058472 1.65963623 -0.9375 1.6875 C-5.9803125 1.749375 -5.9803125 1.749375 -11.125 1.8125 Z M38.875 18.8125 C38.545 19.4725 38.215 20.1325 37.875 20.8125 C39.525 20.8125 41.175 20.8125 42.875 20.8125 C42.875 20.1525 42.875 19.4925 42.875 18.8125 C41.555 18.8125 40.235 18.8125 38.875 18.8125 Z M25.875 19.8125 C25.545 22.1225 25.215 24.4325 24.875 26.8125 C26.855 25.1625 28.835 23.5125 30.875 21.8125 C28.49337991 20.39864089 28.49337991 20.39864089 25.875 19.8125 Z " fill="#9D808B" transform="translate(241.125,140.1875)"/>
<path d="M0 0 C6.23321834 0.55755852 11.62726965 1.99885464 17.5 4.125 C18.37003662 4.43630859 19.24007324 4.74761719 20.13647461 5.06835938 C46.95116204 14.80935501 73.20305421 31.25259388 90 55 C90 56.32 90 57.64 90 59 C86.26512223 58.5020163 84.18762365 58.12508244 81 56 C81.66 56 82.32 56 83 56 C80.47217465 50.94434931 77.98346722 47.91069953 73.5859375 44.39453125 C72 43 72 43 70.5625 40.5625 C68.11350995 36.54615632 64.63326909 33.93615404 61 31 C59.73349609 29.96166016 59.73349609 29.96166016 58.44140625 28.90234375 C47.29849685 20.13947325 34.47673118 12.5326416 21 8 C20.20078125 7.72800781 19.4015625 7.45601562 18.578125 7.17578125 C17.04097163 6.66088511 15.50078417 6.15491419 13.95703125 5.66015625 C12 5 12 5 9.375 3.8125 C6.20038189 2.72644644 3.32757961 2.86950668 0 3 C0 2.01 0 1.02 0 0 Z " fill="#DAD1DD" transform="translate(118,40)"/>
<path d="M0 0 C0.52207031 0.18175781 1.04414062 0.36351562 1.58203125 0.55078125 C22.8069626 7.79922541 41.94232002 7.68528278 64 5 C64.99 6.485 64.99 6.485 66 8 C69.58357241 8.25015873 69.58357241 8.25015873 73 8 C59.89925964 15.47684934 37.93962582 15.03643578 23.625 12 C15.80174748 9.60086923 8.18233291 5.89284097 1 2 C0.67 1.34 0.34 0.68 0 0 Z " fill="#E9DEE6" transform="translate(126,134)"/>
<path d="M0 0 C0 0.99 0 1.98 0 3 C-0.7734375 3.02578125 -1.546875 3.0515625 -2.34375 3.078125 C-10.76981314 3.53697002 -16.07148365 5.3809891 -23 10 C-24.12419662 12.30846481 -25.12151056 14.55735023 -26.0625 16.9375 C-27.4978353 20.49149144 -28.86002508 23.79003761 -31 27 C-31 26.34 -31 25.68 -31 25 C-31.66128906 24.89171875 -32.32257813 24.7834375 -33.00390625 24.671875 C-36.76424639 23.8286175 -40.32779937 22.57724369 -43.9375 21.25 C-44.62779297 21.01023438 -45.31808594 20.77046875 -46.02929688 20.5234375 C-50.87715077 18.7405301 -54.19724538 16.49924838 -58 13 C-53.66950063 13 -50.22480259 15.00038429 -46.35742188 16.77929688 C-42.57237372 18.47014185 -39.11528307 19.50213268 -35 20 C-34.979375 19.175 -34.95875 18.35 -34.9375 17.5 C-33.32644579 11.48539763 -29.09926736 7.65571738 -24.30078125 3.87109375 C-20.325317 1.61754656 -16.84592595 0.87443914 -12.375 0.1875 C-11.62476563 0.05408203 -10.87453125 -0.07933594 -10.1015625 -0.21679688 C-6.41194269 -0.82846257 -3.57490813 -1.07088227 0 0 Z " fill="#F5F3F9" transform="translate(128,142)"/>
<path d="M0 0 C6.54127432 3.47505198 12.55331084 7.8638233 15 15 C15.598125 15.29390625 16.19625 15.5878125 16.8125 15.890625 C19.40873242 17.20728573 20.84279823 18.74910822 22.75 20.9375 C23.67039062 21.97197266 23.67039062 21.97197266 24.609375 23.02734375 C26 25 26 25 26 28 C22.18818194 27.47961528 20.31507336 26.72796172 17.625 24 C7.76739914 14.97465437 -4.88625283 9.34379485 -17 4 C-13.36433867 2.92137019 -12.35335539 3.32332231 -9 5 C-5.95746492 5.58345476 -5.95746492 5.58345476 -3 5 C-1.0645852 2.60943058 -1.0645852 2.60943058 0 0 Z " fill="#4166AC" transform="translate(175,68)"/>
<path d="M0 0 C0.66 0.33 1.32 0.66 2 1 C1.21753906 1.69867188 0.43507812 2.39734375 -0.37109375 3.1171875 C-1.39337172 4.0362998 -2.41549935 4.95557934 -3.4375 5.875 C-4.2119043 6.56529297 -4.2119043 6.56529297 -5.00195312 7.26953125 C-7.89487937 9.81793085 -7.89487937 9.81793085 -10 13 C-9.22076172 12.75636719 -9.22076172 12.75636719 -8.42578125 12.5078125 C-3.06900468 11.3864261 2.55435669 11.86930456 8 12 C9.11955078 12.02513672 9.11955078 12.02513672 10.26171875 12.05078125 C15.18281771 12.43783398 17.59347111 14.67269271 21 18 C23 21 23 21 23 27 C18.05 27 13.1 27 8 27 C8.99 26.34 9.98 25.68 11 25 C10.67 24.01 10.34 23.02 10 22 C9.21625 21.9175 8.4325 21.835 7.625 21.75 C5 21 5 21 3.6875 18.9375 C3.460625 18.298125 3.23375 17.65875 3 17 C1.515 17.12375 1.515 17.12375 0 17.25 C-4.63412067 17.28790692 -8.07634666 15.28285285 -12 13 C-10.44997253 9.11602311 -7.99523379 6.97020381 -4.875 4.25 C-3.96492187 3.45078125 -3.05484375 2.6515625 -2.1171875 1.828125 C-1.06917969 0.92320313 -1.06917969 0.92320313 0 0 Z M14 16 C14 16.66 14 17.32 14 18 C14.639375 18.639375 15.27875 19.27875 15.9375 19.9375 C18 22 18 22 19 25 C19.99 25.33 20.98 25.66 22 26 C21.52153935 21.69385411 20.34073619 19.75119451 17 17 C16.01 16.67 15.02 16.34 14 16 Z M11 17 C12 19 12 19 12 19 Z " fill="#BBB7D3" transform="translate(229,88)"/>
<path d="M0 0 C9.27734375 -0.09765625 9.27734375 -0.09765625 12 0 C13 1 13 1 13.11352539 3.68383789 C13.10828857 4.85164795 13.10305176 6.01945801 13.09765625 7.22265625 C13.09443359 8.48271484 13.09121094 9.74277344 13.08789062 11.04101562 C13.07953403 12.38151109 13.07106907 13.72200588 13.0625 15.0625 C13.0574866 16.40689942 13.05292342 17.7513006 13.04882812 19.09570312 C13.03699488 22.39717941 13.02050971 25.69856803 13 29 C10.2540274 30.3729863 8.0410953 30.12412634 5 30 C4.01 29.67 3.02 29.34 2 29 C1.34 29.33 0.68 29.66 0 30 C-9.08519172 31.03915592 -9.08519172 31.03915592 -13.05859375 28.8828125 C-14.6875 27.5 -14.6875 27.5 -17 25 C-16.505 23.515 -16.505 23.515 -16 22 C-15.1028125 23.2065625 -15.1028125 23.2065625 -14.1875 24.4375 C-12.19052724 27.22327984 -12.19052724 27.22327984 -9 28 C-5.52139685 28.13126804 -2.36500787 28.06704226 1.0625 27.4375 C4 27 4 27 10 28 C10 19.42 10 10.84 10 2 C7.69 2 5.38 2 3 2 C3 7.28 3 12.56 3 18 C1.02 18.99 1.02 18.99 -1 20 C-0.67 13.4 -0.34 6.8 0 0 Z " fill="#745C67" transform="translate(214,150)"/>
<path d="M0 0 C5.08938811 1.59043379 8.87456643 4.7446951 13 8 C12.25 12.75 12.25 12.75 10 15 C5.88228929 15.3580618 3.60199686 14.82501174 0 13 C-1.30165637 12.66322648 -2.61615551 12.37354464 -3.9375 12.125 C-10.08524806 10.85021612 -16.02298556 8.90303706 -22 7 C-22 6.67 -22 6.34 -22 6 C-16.21101581 5.79325056 -11.57067277 6.40837921 -6 8 C-6 8.66 -6 9.32 -6 10 C-2.77595022 8.33045181 -2.77595022 8.33045181 -2.3125 5.375 C-2.209375 4.59125 -2.10625 3.8075 -2 3 C-1.34 3 -0.68 3 0 3 C0 2.01 0 1.02 0 0 Z " fill="#0B4DA8" transform="translate(162,59)"/>
<path d="M0 0 C0.66 0.33 1.32 0.66 2 1 C2.6328125 3.50390625 2.6328125 3.50390625 3.125 6.5625 C3.29257812 7.57441406 3.46015625 8.58632812 3.6328125 9.62890625 C3.75398438 10.41136719 3.87515625 11.19382813 4 12 C4.33 12 4.66 12 5 12 C5.66 15.3 6.32 18.6 7 22 C10.05416813 23.01805604 12.17936961 23.13375515 15.375 23.125 C16.31085938 23.12757813 17.24671875 23.13015625 18.2109375 23.1328125 C20.90729747 23.00441441 23.37271509 22.60188709 26 22 C26 22.66 26 23.32 26 24 C28.31 24 30.62 24 33 24 C32.67 24.66 32.34 25.32 32 26 C28.65747276 26.07427838 26.1964086 26.06546953 23 25 C22.01 25.33 21.02 25.66 20 26 C15.3165833 26.41277571 11.26819158 26.56939214 6.9375 24.625 C5 23 5 23 4 21 C3.87625 21.639375 3.7525 22.27875 3.625 22.9375 C3.315625 23.9584375 3.315625 23.9584375 3 25 C0.63386544 26.18306728 -0.86780736 26.13354608 -3.5 26.125 C-4.2940625 26.12757813 -5.088125 26.13015625 -5.90625 26.1328125 C-8 26 -8 26 -10 25 C-10.03738281 23.72382813 -10.07476562 22.44765625 -10.11328125 21.1328125 C-10.17892791 19.46351162 -10.2453757 17.79424211 -10.3125 16.125 C-10.33505859 15.28324219 -10.35761719 14.44148437 -10.38085938 13.57421875 C-10.41630859 12.76855469 -10.45175781 11.96289062 -10.48828125 11.1328125 C-10.51446533 10.38918457 -10.54064941 9.64555664 -10.56762695 8.87939453 C-10.86729591 6.59266174 -10.86729591 6.59266174 -14 5 C-9.125 5.875 -9.125 5.875 -8 7 C-7.92674832 9.86267567 -7.90761795 12.700719 -7.9375 15.5625 C-7.94201172 16.36880859 -7.94652344 17.17511719 -7.95117188 18.00585938 C-7.96299482 20.00393756 -7.98093086 22.00197783 -8 24 C-5.03 24 -2.06 24 1 24 C0.67 16.08 0.34 8.16 0 0 Z " fill="#916E77" transform="translate(344,154)"/>
<path d="M0 0 C22.60861449 6.74780186 42.42295337 25.09646591 57 43 C56.34 44.32 55.68 45.64 55 47 C51.73391481 43.93804513 48.94533563 40.71774719 46.1875 37.1875 C33.97752229 21.78238794 17.41221583 9.96563959 0 1 C0 0.67 0 0.34 0 0 Z " fill="#DED8E5" transform="translate(160,82)"/>
<path d="M0 0 C2.4932534 0.99730136 3.77467439 1.65074531 5.25 3.9375 C6 6 6 6 6 9 C4.73160474 9.50615298 3.46016898 10.00469099 2.1875 10.5 C1.47980469 10.7784375 0.77210938 11.056875 0.04296875 11.34375 C-2 12 -2 12 -5 12 C-5 12.66 -5 13.32 -5 14 C-11.25948114 16.13391403 -17.42208127 16.58955515 -24 17 C-24 16.34 -24 15.68 -24 15 C-24.99 14.67 -25.98 14.34 -27 14 C-20.37684533 11.72605023 -13.81326847 9.61670777 -7 8 C-4.65962209 7.35561297 -2.33046309 6.6797184 0 6 C0 4.02 0 2.04 0 0 Z " fill="#EAE7F0" transform="translate(215,126)"/>
<path d="M0 0 C0.66 0.66 1.32 1.32 2 2 C1.33613281 2.32613281 0.67226563 2.65226562 -0.01171875 2.98828125 C-4.44060436 5.18009471 -8.81993819 7.35262752 -13 10 C-13.495 8.02 -13.495 8.02 -14 6 C-13.34 6 -12.68 6 -12 6 C-12 5.34 -12 4.68 -12 4 C-11.01 4 -10.02 4 -9 4 C-10.67311754 0.76493315 -10.67311754 0.76493315 -13.67822266 0.31860352 C-17.19232064 -0.01844616 -20.618057 -0.11274335 -24.1484375 -0.09765625 C-24.80582916 -0.0962413 -25.46322083 -0.09482635 -26.14053345 -0.09336853 C-28.21873731 -0.08781762 -30.29682927 -0.07527465 -32.375 -0.0625 C-33.79296718 -0.05747864 -35.21093607 -0.05291685 -36.62890625 -0.04882812 C-40.08597322 -0.03786437 -43.54297567 -0.02063421 -47 0 C-35.45922092 -7.69385272 -12.33505716 -4.60361955 0 0 Z " fill="#4F68A9" transform="translate(299,78)"/>
<path d="M0 0 C6.23321834 0.55755852 11.62726965 1.99885464 17.5 4.125 C18.37003662 4.43630859 19.24007324 4.74761719 20.13647461 5.06835938 C35.85741509 10.77931957 49.75331676 17.6379813 63 28 C61.24609375 28.65234375 61.24609375 28.65234375 59 29 C57.09765625 28.06640625 57.09765625 28.06640625 55.0625 26.5625 C54.27101562 26.005625 53.47953125 25.44875 52.6640625 24.875 C51.34535156 23.946875 51.34535156 23.946875 50 23 C38.0866422 15.07905433 25.66705115 9.25695036 12 5 C11.13375 4.608125 10.2675 4.21625 9.375 3.8125 C6.20038189 2.72644644 3.32757961 2.86950668 0 3 C0 2.01 0 1.02 0 0 Z " fill="#C4C1DE" transform="translate(118,40)"/>
<path d="M0 0 C4.62 0 9.24 0 14 0 C14 0.33 14 0.66 14 1 C8.06 1.495 8.06 1.495 2 2 C3.423125 2.29390625 3.423125 2.29390625 4.875 2.59375 C22.91707624 6.49040475 40.86215071 11.90825392 57 21 C55.02 21.99 55.02 21.99 53 23 C52.18595703 22.09314453 52.18595703 22.09314453 51.35546875 21.16796875 C45.07693441 15.38921824 36.30838336 13.41541917 28 13 C28 12.67 28 12.34 28 12 C26.2675 11.8453125 26.2675 11.8453125 24.5 11.6875 C20.66092225 11.21865688 17.40339475 10.14326119 13.83203125 8.69921875 C11.59367861 7.84492211 9.36371478 7.36933043 7 7 C7 6.34 7 5.68 7 5 C4.03 4.505 4.03 4.505 1 4 C0.67 2.68 0.34 1.36 0 0 Z " fill="#597AB6" transform="translate(103,60)"/>
<path d="M0 0 C1.23556641 0.01740234 1.23556641 0.01740234 2.49609375 0.03515625 C3.32238281 0.04417969 4.14867187 0.05320312 5 0.0625 C5.63808594 0.07410156 6.27617187 0.08570312 6.93359375 0.09765625 C6.93359375 0.75765625 6.93359375 1.41765625 6.93359375 2.09765625 C7.57296875 2.32453125 8.21234375 2.55140625 8.87109375 2.78515625 C10.93359375 4.09765625 10.93359375 4.09765625 11.68359375 6.72265625 C11.80734375 7.89828125 11.80734375 7.89828125 11.93359375 9.09765625 C12.59359375 9.09765625 13.25359375 9.09765625 13.93359375 9.09765625 C13.35774943 6.71201548 12.7113178 4.43082841 11.93359375 2.09765625 C12.59359375 2.09765625 13.25359375 2.09765625 13.93359375 2.09765625 C15.93359375 5.09765625 15.93359375 5.09765625 15.93359375 11.09765625 C10.98359375 11.09765625 6.03359375 11.09765625 0.93359375 11.09765625 C1.92359375 10.43765625 2.91359375 9.77765625 3.93359375 9.09765625 C3.60359375 8.10765625 3.27359375 7.11765625 2.93359375 6.09765625 C1.28359375 5.76765625 -0.36640625 5.43765625 -2.06640625 5.09765625 C-2.62890625 3.16015625 -2.62890625 3.16015625 -3.06640625 1.09765625 C-2.06640625 0.09765625 -2.06640625 0.09765625 0 0 Z M3.93359375 1.09765625 C4.93359375 3.09765625 4.93359375 3.09765625 4.93359375 3.09765625 Z " fill="#D5BAC9" transform="translate(236.06640625,103.90234375)"/>
<path d="M0 0 C0.886875 0.825 1.77375 1.65 2.6875 2.5 C7.89399571 6.318814 13.83878964 5.41692401 20 5 C19.25 9.75 19.25 9.75 17 12 C14.5 12.25 14.5 12.25 12 12 C11.34 11.34 10.68 10.68 10 10 C7.79749008 9.53993654 7.79749008 9.53993654 5.375 9.375 C4.55773437 9.30023438 3.74046875 9.22546875 2.8984375 9.1484375 C2.27195312 9.09945312 1.64546875 9.05046875 1 9 C1.90427958 12.04166769 2.57276163 13.67328831 5.125 15.625 C8.63250965 17.30250462 11.43965282 17.50652583 15.3125 17.6875 C16.56675781 17.75324219 17.82101562 17.81898438 19.11328125 17.88671875 C20.06589844 17.92410156 21.01851563 17.96148437 22 18 C22 18.66 22 19.32 22 20 C16.03418098 21.08469437 10.67680966 21.48360423 5 19 C2.48734142 16.98379412 0.41407014 14.91421411 -1 12 C-0.6484375 9.7734375 -0.6484375 9.7734375 0 8 C1.98 7.67 3.96 7.34 6 7 C5.01 6.21625 4.02 5.4325 3 4.625 C2.01 3.75875 1.02 2.8925 0 2 C0 1.34 0 0.68 0 0 Z M11 9 C11.66 9.66 12.32 10.32 13 11 C15.60280568 10.67958603 15.60280568 10.67958603 18 10 C18 9.01 18 8.02 18 7 C14.04542152 6.65176193 14.04542152 6.65176193 11 9 Z " fill="#987C85" transform="translate(380,171)"/>
<path d="M0 0 C6.12415343 3.84282322 12.16865561 7.72368078 18 12 C17.69140625 13.921875 17.69140625 13.921875 17 16 C13.9375 17.25 13.9375 17.25 11 18 C11.22816406 18.54269531 11.45632812 19.08539063 11.69140625 19.64453125 C11.97886719 20.35996094 12.26632813 21.07539063 12.5625 21.8125 C12.85253906 22.52019531 13.14257812 23.22789062 13.44140625 23.95703125 C14 26 14 26 13 29 C12.32404685 27.58774074 11.65959941 26.16997095 11 24.75 C10.62875 23.96109375 10.2575 23.1721875 9.875 22.359375 C9 20 9 20 9 16 C6.69 16.33 4.38 16.66 2 17 C4.68092691 14.31907309 6.39167363 14.61329743 10.125 14.375 C11.22070312 14.30023438 12.31640625 14.22546875 13.4453125 14.1484375 C14.28835937 14.09945312 15.13140625 14.05046875 16 14 C15.67 13.34 15.34 12.68 15 12 C11.7 12 8.4 12 5 12 C6.32 11.67 7.64 11.34 9 11 C9 10.34 9 9.68 9 9 C8.34 9 7.68 9 7 9 C7 8.34 7 7.68 7 7 C4.69 7.33 2.38 7.66 0 8 C0 5.33333333 0 2.66666667 0 0 Z " fill="#3065B3" transform="translate(112,130)"/>
<path d="M0 0 C0 0.33 0 0.66 0 1 C-1.44052734 0.89171875 -1.44052734 0.89171875 -2.91015625 0.78125 C-11.56293622 0.17639339 -20.20106574 -0.13084927 -28.875 -0.1875 C-29.812229 -0.20039062 -30.74945801 -0.21328125 -31.71508789 -0.2265625 C-37.48746458 -0.23468189 -42.80064375 0.42070288 -48.45605469 1.55249023 C-51.93542376 2.16455199 -55.15512029 2.19494811 -58.6875 2.125 C-59.88761719 2.10695313 -61.08773437 2.08890625 -62.32421875 2.0703125 C-63.64873047 2.03550781 -63.64873047 2.03550781 -65 2 C-48.40890213 -7.48629758 -18.03476834 -3.91894755 0 0 Z " fill="#717BB0" transform="translate(118,39)"/>
<path d="M0 0 C-2.10084209 1.00696568 -4.20579489 2.0053589 -6.3125 3 C-7.48425781 3.556875 -8.65601563 4.11375 -9.86328125 4.6875 C-13 6 -13 6 -16 6 C-16.33 6.99 -16.66 7.98 -17 9 C-17.99 9 -18.98 9 -20 9 C-20.226875 9.556875 -20.45375 10.11375 -20.6875 10.6875 C-22.36151077 13.63694755 -24.54956349 15.6752269 -27 18 C-27.33 18.33 -27.66 18.66 -28 19 C-26.51886719 19.07347656 -26.51886719 19.07347656 -25.0078125 19.1484375 C-23.72648438 19.22320312 -22.44515625 19.29796875 -21.125 19.375 C-19.84882813 19.44460937 -18.57265625 19.51421875 -17.2578125 19.5859375 C-14 20 -14 20 -12 22 C-18.93 22 -25.86 22 -33 22 C-31.08364692 18.16729384 -29.84930553 16.74604923 -26.6875 14.0625 C-24.19721514 11.9358221 -21.85884039 9.84935262 -19.6171875 7.45703125 C-16.71996558 4.73710201 -14.04404139 3.2715554 -10.4375 1.625 C-9.32246094 1.10164063 -8.20742187 0.57828125 -7.05859375 0.0390625 C-4.03568611 -0.98787675 -2.88810078 -1.20043308 0 0 Z " fill="#2B56A2" transform="translate(252,79)"/>
<path d="M0 0 C0.66 0.33 1.32 0.66 2 1 C1.28972656 1.62648438 0.57945312 2.25296875 -0.15234375 2.8984375 C-1.07144531 3.71570313 -1.99054688 4.53296875 -2.9375 5.375 C-4.31228516 6.59316406 -4.31228516 6.59316406 -5.71484375 7.8359375 C-8.03601395 9.78709347 -8.03601395 9.78709347 -9 12 C-8.2575 12.680625 -8.2575 12.680625 -7.5 13.375 C-6 15 -6 15 -6 17 C-3.03 17 -0.06 17 3 17 C3 17.33 3 17.66 3 18 C0.22754986 18.13487595 -2.53837088 18.23400807 -5.3125 18.3125 C-6.09818359 18.35439453 -6.88386719 18.39628906 -7.69335938 18.43945312 C-9.90336375 18.48647449 -11.84148911 18.48367587 -14 18 C-16.04296875 15.48046875 -16.04296875 15.48046875 -17 13 C-16.195625 12.690625 -15.39125 12.38125 -14.5625 12.0625 C-10.24177544 9.94854168 -7.22852328 6.40344794 -3.953125 2.9609375 C-2 1 -2 1 0 0 Z " fill="#516EAD" transform="translate(235,115)"/>
<path d="M0 0 C4.78025261 1.42672155 9.04217011 3.43832049 13.375 5.875 C14.05820313 6.257771 14.74140625 6.64054199 15.4453125 7.03491211 C23.46837644 11.66226548 30.72998583 17.28646493 38 23 C32.52909199 23 30.45710811 21.591912 26.37890625 17.9453125 C18.35229701 11.3816813 9.20447708 5.73943264 0 1 C0 0.67 0 0.34 0 0 Z " fill="#A8B2D9" transform="translate(160,82)"/>
<path d="M0 0 C0 0.99 0 1.98 0 3 C-0.76183594 3.02578125 -1.52367188 3.0515625 -2.30859375 3.078125 C-9.34826804 3.46482371 -14.79394119 4.63054888 -21 8 C-21.33 7.01 -21.66 6.02 -22 5 C-22.66 4.67 -23.32 4.34 -24 4 C-17.14351313 0.49202997 -7.55358187 -2.57299626 0 0 Z " fill="#EEF5FB" transform="translate(128,142)"/>
<path d="M0 0 C0.52207031 0.18175781 1.04414062 0.36351562 1.58203125 0.55078125 C5.85904814 2.01140873 10.15479454 3.38088617 14.5 4.625 C15.3353125 4.86476562 16.170625 5.10453125 17.03125 5.3515625 C24.67260486 7.02059527 32.26880061 7.13300668 40.0625 7.0625 C41.50399414 7.05573242 41.50399414 7.05573242 42.97460938 7.04882812 C45.31647422 7.03717706 47.65820181 7.02082025 50 7 C46.6442371 9.02524462 44.1339236 9.22514517 40.24609375 9.16015625 C39.14458984 9.14919922 38.04308594 9.13824219 36.90820312 9.12695312 C35.76287109 9.10568359 34.61753906 9.08441406 33.4375 9.0625 C31.16542772 9.02809397 28.89328577 8.9979472 26.62109375 8.97265625 C25.6148999 8.95468994 24.60870605 8.93672363 23.57202148 8.91821289 C20.88009784 8.881125 20.88009784 8.881125 18 10 C16.11474609 9.41088867 16.11474609 9.41088867 14.0234375 8.41796875 C13.270625 8.06283203 12.5178125 7.70769531 11.7421875 7.34179688 C10.57042969 6.77041992 10.57042969 6.77041992 9.375 6.1875 C8.19164062 5.63352539 8.19164062 5.63352539 6.984375 5.06835938 C1.13454175 2.2690835 1.13454175 2.2690835 0 0 Z " fill="#9DAFD4" transform="translate(126,134)"/>
<path d="M0 0 C6.74386098 0.61182837 13.11219339 1.84645809 19.6875 3.4375 C27.22878495 5.2243603 34.60179203 6.67157328 42.3203125 7.4453125 C45.26114469 8.05405619 46.77184729 9.02771172 49 11 C48.67 11.66 48.34 12.32 48 13 C47.34 12.67 46.68 12.34 46 12 C46 11.34 46 10.68 46 10 C44.9790625 9.94392578 44.9790625 9.94392578 43.9375 9.88671875 C35.11914096 9.28866515 26.64812391 7.7278435 18 6 C16.96488281 5.81179687 15.92976563 5.62359375 14.86328125 5.4296875 C13.98027344 5.26726562 13.09726563 5.10484375 12.1875 4.9375 C11.06408203 4.73447266 11.06408203 4.73447266 9.91796875 4.52734375 C8 4 8 4 5 2 C2.37468476 1.83286431 2.37468476 1.83286431 0 2 C0 1.34 0 0.68 0 0 Z " fill="#7C81B5" transform="translate(57,110)"/>
<path d="M0 0 C3.26460973 1.80412643 4.88929795 2.83394693 7 6 C6.01 6 5.02 6 4 6 C4 5.34 4 4.68 4 4 C3.01 4 2.02 4 1 4 C1.33 6.64 1.66 9.28 2 12 C-2.46797338 10.60121198 -6.63822079 8.86369228 -10.875 6.875 C-12.02742187 6.33617188 -13.17984375 5.79734375 -14.3671875 5.2421875 C-15.67042969 4.62730469 -15.67042969 4.62730469 -17 4 C-13.36433867 2.92137019 -12.35335539 3.32332231 -9 5 C-5.95746492 5.58345476 -5.95746492 5.58345476 -3 5 C-1.0645852 2.60943058 -1.0645852 2.60943058 0 0 Z " fill="#3F66AB" transform="translate(175,68)"/>
<path d="M0 0 C1.25541557 3.76624671 0.37061958 5.37188934 -1 9 C2.3 9 5.6 9 9 9 C9.66 7.35 10.32 5.7 11 4 C13.12472576 3.94613371 15.24983652 3.90726929 17.375 3.875 C18.55835937 3.85179687 19.74171875 3.82859375 20.9609375 3.8046875 C24 4 24 4 26 6 C26 6.99 26 7.98 26 9 C28.31 9 30.62 9 33 9 C33 9.33 33 9.66 33 10 C30.03 10 27.06 10 24 10 C23.67 8.68 23.34 7.36 23 6 C17.555 5.505 17.555 5.505 12 5 C11.34 6.65 10.68 8.3 10 10 C9 11 9 11 5.1875 11.125 C2.31082025 11.09401243 -0.24772999 10.91742334 -3 10 C-2.49287967 6.28111761 -1.88391785 3.26545761 0 0 Z " fill="#8D737B" transform="translate(96,169)"/>
<path d="M0 0 C0.763125 0.20625 1.52625 0.4125 2.3125 0.625 C2.9375 4 2.9375 4 3.3125 7.625 C1.3125 9.625 1.3125 9.625 -1.125 9.9375 C-3.6875 9.625 -3.6875 9.625 -5.5625 8.4375 C-6.6875 6.625 -6.6875 6.625 -6.5625 4.0625 C-5.27735218 0.48244537 -3.77697149 -0.52701928 0 0 Z M-1.6875 3.625 C-2.0175 4.285 -2.3475 4.945 -2.6875 5.625 C-2.0275 5.625 -1.3675 5.625 -0.6875 5.625 C-1.0175 4.965 -1.3475 4.305 -1.6875 3.625 Z " fill="#A17A86" transform="translate(262.6875,202.375)"/>
<path d="M0 0 C2.97 0 5.94 0 9 0 C9 2.64 9 5.28 9 8 C5.52176885 9.15941038 3.54104422 8.70820884 0 8 C0 5.36 0 2.72 0 0 Z " fill="#8B6473" transform="translate(194,203)"/>
<path d="M0 0 C-5.23617903 5.8179767 -10.53454587 6.38194497 -18 7 C-18 6.34 -18 5.68 -18 5 C-18.99 4.67 -19.98 4.34 -21 4 C-19.12699975 3.34838988 -17.2514945 2.70397805 -15.375 2.0625 C-14.33085937 1.70285156 -13.28671875 1.34320313 -12.2109375 0.97265625 C-4.28489484 -1.42829828 -4.28489484 -1.42829828 0 0 Z " fill="#F4F7F9" transform="translate(209,136)"/>
<path d="M0 0 C6.15234375 -0.09765625 6.15234375 -0.09765625 8 0 C9 1 9 1 9.0625 4.5625 C9.041875 5.696875 9.02125 6.83125 9 8 C2.25 9.125 2.25 9.125 0 8 C0 5.36 0 2.72 0 0 Z " fill="#BA919E" transform="translate(306,203)"/>
<path d="M0 0 C6.15234375 -0.09765625 6.15234375 -0.09765625 8 0 C8.33 0.33 8.66 0.66 9 1 C8.71269945 3.33944736 8.38063221 5.6739143 8 8 C5.6875 8.6875 5.6875 8.6875 3 9 C1.1875 7.9375 1.1875 7.9375 0 6 C-0.1875 2.8125 -0.1875 2.8125 0 0 Z " fill="#A78190" transform="translate(380,203)"/>
<path d="M0 0 C0.98120464 3.05263664 0.98120464 4.94736336 0 8 C-4.75 9.125 -4.75 9.125 -7 8 C-7 5.36 -7 2.72 -7 0 C-4.3333581 -1.33332095 -2.83319697 -0.67102033 0 0 Z " fill="#987480" transform="translate(414,203)"/>
<path d="M0 0 C0 2.64 0 5.28 0 8 C-5.75 9.125 -5.75 9.125 -8 8 C-8 5.36 -8 2.72 -8 0 C-4.94736336 -0.98120464 -3.05263664 -0.98120464 0 0 Z " fill="#9D7B87" transform="translate(279,203)"/>
<path d="M0 0 C2.5625718 -0.02710123 5.12485365 -0.04688771 7.6875 -0.0625 C8.40873047 -0.07087891 9.12996094 -0.07925781 9.87304688 -0.08789062 C13.71555382 -0.10543632 17.26639526 0.06475779 21 1 C20.67 2.65 20.34 4.3 20 6 C19.67 5.01 19.34 4.02 19 3 C17.35369672 3.14042877 15.70795821 3.28749329 14.0625 3.4375 C12.68771484 3.55931641 12.68771484 3.55931641 11.28515625 3.68359375 C9.03840268 3.76044976 9.03840268 3.76044976 8 5 C5.0625 5.1875 5.0625 5.1875 2 5 C1.34 4.34 0.68 3.68 0 3 C0 2.01 0 1.02 0 0 Z M2 2 C2.66 2.66 3.32 3.32 4 4 C6.10820797 3.6814823 6.10820797 3.6814823 8 3 C8 2.67 8 2.34 8 2 C6.02 2 4.04 2 2 2 Z " fill="#9B8085" transform="translate(423,167)"/>
<path d="M0 0 C2.6875 0.875 2.6875 0.875 5 2 C5 4.31 5 6.62 5 9 C-0.43440487 10.32841008 -0.43440487 10.32841008 -2.9375 8.875 C-4 7 -4 7 -3.875 4.4375 C-3 2 -3 2 0 0 Z M0 4 C0.33 4.99 0.66 5.98 1 7 C1.33 6.01 1.66 5.02 2 4 C1.34 4 0.68 4 0 4 Z " fill="#A58492" transform="translate(212,202)"/>
<path d="M0 0 C0.79953138 3.28696233 1.09658936 4.71023192 0 8 C-1.9914056 8.38133299 -3.99279077 8.71325582 -6 9 C-7 8 -7 8 -7.09765625 6.15234375 C-7.06510417 4.1015625 -7.03255208 2.05078125 -7 0 C-4.3333581 -1.33332095 -2.83319697 -0.67102033 0 0 Z " fill="#B9939F" transform="translate(401,203)"/>
<path d="M0 0 C1.9375 0.375 1.9375 0.375 4 1 C4.33 1.66 4.66 2.32 5 3 C5.99 3.66 6.98 4.32 8 5 C8 6.32 8 7.64 8 9 C9.32 9.66 10.64 10.32 12 11 C12 11.99 12 12.98 12 14 C13.32 14 14.64 14 16 14 C16.66 15.98 17.32 17.96 18 20 C9.71082635 16.49304192 4.68885269 9.39029828 0 2 C0 1.34 0 0.68 0 0 Z " fill="#5970AB" transform="translate(104,111)"/>
<path d="M0 0 C2.64 0 5.28 0 8 0 C8.125 3.375 8.125 3.375 8 7 C7.34 7.66 6.68 8.32 6 9 C1.44444444 8.44444444 1.44444444 8.44444444 0 7 C-0.04092937 4.66702567 -0.04241723 2.33294775 0 0 Z " fill="#B693A0" transform="translate(354,203)"/>
<path d="M0 0 C6.26718317 0.57678746 11.65767103 2.53589232 17.5 4.8125 C18.41136719 5.15603516 19.32273438 5.49957031 20.26171875 5.85351562 C25.47043459 7.85657879 30.2377873 10.08903207 35 13 C33.02 13.99 33.02 13.99 31 15 C30.45730469 14.39542969 29.91460937 13.79085937 29.35546875 13.16796875 C23.6863299 7.95010463 15.5485032 5.51216205 7.9375 5.23828125 C5.56593586 4.94661711 4.02530043 4.26159339 2 3 C1.34 2.01 0.68 1.02 0 0 Z " fill="#7E88BE" transform="translate(125,68)"/>
<path d="M0 0 C0 0.99 0 1.98 0 3 C-7.78896712 9.59066448 -17.09922607 9.22662353 -26.83984375 9.265625 C-30 9 -30 9 -32 7 C-30.80503906 6.95101562 -29.61007813 6.90203125 -28.37890625 6.8515625 C-13.03650852 6.85026282 -13.03650852 6.85026282 0 0 Z " fill="#90737A" transform="translate(262,171)"/>
<path d="M0 0 C0 0.33 0 0.66 0 1 C-0.99580078 1.12955078 -0.99580078 1.12955078 -2.01171875 1.26171875 C-7.85889686 2.19214563 -11.2139497 3.1147738 -15 8 C-16.38226016 10.76452033 -16.09525387 13.0461363 -16.0625 16.125 C-16.04896484 17.76855469 -16.04896484 17.76855469 -16.03515625 19.4453125 C-16.02355469 20.28835937 -16.01195312 21.13140625 -16 22 C-16.33 22 -16.66 22 -17 22 C-17.33 24.64 -17.66 27.28 -18 30 C-18.33 30 -18.66 30 -19 30 C-19.14567407 26.43793278 -19.23419196 22.87663449 -19.3125 19.3125 C-19.35439453 18.30509766 -19.39628906 17.29769531 -19.43945312 16.25976562 C-19.56347909 8.74379239 -19.56347909 8.74379239 -16.65625 4.90625 C-10.82757851 0.72332105 -7.04910205 -0.36460873 0 0 Z " fill="#AC8E98" transform="translate(396,149)"/>
<path d="M0 0 C0 2.64 0 5.28 0 8 C-4.75 9.125 -4.75 9.125 -7 8 C-7 5.36 -7 2.72 -7 0 C-3.86650268 -1.04449911 -3.01031744 -0.93423645 0 0 Z " fill="#B797A2" transform="translate(230,203)"/>
<path d="M0 0 C7.18372952 3.00410507 11.74764104 7.30994446 17 13 C15 15 15 15 13 16 C12.67 15.319375 12.34 14.63875 12 13.9375 C9.68401362 10.535895 7.02516147 8.31451568 3.83984375 5.74609375 C1.93921273 3.94231017 1.01212503 2.39658622 0 0 Z " fill="#CDCDE4" transform="translate(177,67)"/>
<path d="M0 0 C2.31 0 4.62 0 7 0 C7 2.64 7 5.28 7 8 C2.25 9.125 2.25 9.125 0 8 C0 5.36 0 2.72 0 0 Z " fill="#9D7A87" transform="translate(320,203)"/>
<path d="M0 0 C2.64 0 5.28 0 8 0 C8 2.64 8 5.28 8 8 C5.36 8 2.72 8 0 8 C0 5.36 0 2.72 0 0 Z " fill="#936F7D" transform="translate(127,203)"/>
<path d="M0 0 C0.33 2.31 0.66 4.62 1 7 C-1.3125 8.125 -1.3125 8.125 -4 9 C-4.99 8.34 -5.98 7.68 -7 7 C-7.1875 3.375 -7.1875 3.375 -7 0 C-3.86650268 -1.04449911 -3.01031744 -0.93423645 0 0 Z " fill="#A57F8D" transform="translate(148,203)"/>
<path d="M0 0 C2.64 0 5.28 0 8 0 C8 2.31 8 4.62 8 7 C5.6875 8.125 5.6875 8.125 3 9 C2.01 8.34 1.02 7.68 0 7 C-0.1875 3.375 -0.1875 3.375 0 0 Z " fill="#9F7786" transform="translate(154,203)"/>
<path d="M0 0 C3.16774824 2.39721488 5.90942317 4.58905886 8 8 C8 8.99 8 9.98 8 11 C3.8275894 10.48118887 1.74583179 9.28848726 -1.3125 6.4375 C-2.00988281 5.79683594 -2.70726562 5.15617187 -3.42578125 4.49609375 C-4.20501953 3.75552734 -4.20501953 3.75552734 -5 3 C-4.34 2.67 -3.68 2.34 -3 2 C-2.01 2.33 -1.02 2.66 0 3 C0 2.01 0 1.02 0 0 Z " fill="#5F77AE" transform="translate(193,85)"/>
<path d="M0 0 C0.25 2.25 0.25 2.25 0 5 C-2 7.3125 -2 7.3125 -4 9 C-4.99 8.67 -5.98 8.34 -7 8 C-7 5.36 -7 2.72 -7 0 C-4.3333581 -1.33332095 -2.83319697 -0.67102033 0 0 Z " fill="#A88591" transform="translate(251,203)"/>
<path d="M0 0 C2.31 0 4.62 0 7 0 C7 2.64 7 5.28 7 8 C4.69 8 2.38 8 0 8 C0 5.36 0 2.72 0 0 Z " fill="#8F6F7C" transform="translate(168,203)"/>
<path d="M0 0 C1.32 0 2.64 0 4 0 C5.25664978 2.90600261 6 4.79604584 6 8 C3.03 8 0.06 8 -3 8 C-1.125 1.125 -1.125 1.125 0 0 Z " fill="#B78B99" transform="translate(183,203)"/>
<path d="M0 0 C3 1 3 1 4 3 C4.23076923 8.53846154 4.23076923 8.53846154 3 11 C-2.61 11 -8.22 11 -14 11 C-13 9 -13 9 -11.4375 8.375 C-6.8677511 7.67196171 -2.42498226 7.52500591 2 9 C1.34 6.03 0.68 3.06 0 0 Z " fill="#1F4F9E" transform="translate(250,106)"/>
<path d="M0 0 C2.4375 0.75 2.4375 0.75 5 2 C5.8125 4.125 5.8125 4.125 6 6 C2.535 7.485 2.535 7.485 -1 9 C-0.77183594 9.54269531 -0.54367188 10.08539063 -0.30859375 10.64453125 C-0.02113281 11.35996094 0.26632813 12.07539063 0.5625 12.8125 C0.85253906 13.52019531 1.14257812 14.22789062 1.44140625 14.95703125 C2 17 2 17 1 20 C0.32404685 18.58774074 -0.34040059 17.16997095 -1 15.75 C-1.37125 14.96109375 -1.7425 14.1721875 -2.125 13.359375 C-3 11 -3 11 -3 7 C-5.31 7.33 -7.62 7.66 -10 8 C-7.31907309 5.31907309 -5.60832637 5.61329743 -1.875 5.375 C-0.77929688 5.30023438 0.31640625 5.22546875 1.4453125 5.1484375 C2.28835937 5.09945312 3.13140625 5.05046875 4 5 C3.67 4.34 3.34 3.68 3 3 C2.01 2.67 1.02 2.34 0 2 C0 1.34 0 0.68 0 0 Z " fill="#B6A0AA" transform="translate(124,139)"/>
<path d="M0 0 C6.61091657 0.54833537 12.28970271 2.28328479 18.5 4.5625 C19.87671875 5.0565332 19.87671875 5.0565332 21.28125 5.56054688 C23.52359298 6.36638888 25.76293768 7.17963729 28 8 C28 8.66 28 9.32 28 10 C22.17778351 8.69960647 16.57356881 7.43098674 11.1875 4.8125 C7.21302569 2.90504244 4.37339764 2.62779595 0 3 C0 2.01 0 1.02 0 0 Z " fill="#6D80BA" transform="translate(118,40)"/>
<path d="M0 0 C0 0.66 0 1.32 0 2 C2.31 2 4.62 2 7 2 C6.67 2.66 6.34 3.32 6 4 C2.65747276 4.07427838 0.1964086 4.06546953 -3 3 C-3.99 3.33 -4.98 3.66 -6 4 C-7.68358775 4.1418907 -9.37320743 4.22014505 -11.0625 4.25 C-12.37927734 4.28867188 -12.37927734 4.28867188 -13.72265625 4.328125 C-14.47417969 4.21984375 -15.22570312 4.1115625 -16 4 C-16.66 3.01 -17.32 2.02 -18 1 C-17.08476562 1.01160156 -16.16953125 1.02320313 -15.2265625 1.03515625 C-14.03804688 1.04417969 -12.84953125 1.05320313 -11.625 1.0625 C-9.84996094 1.07990234 -9.84996094 1.07990234 -8.0390625 1.09765625 C-4.924006 0.99755803 -3.11520951 0 0 0 Z " fill="#806771" transform="translate(370,176)"/>
<path d="M0 0 C0.99 0 1.98 0 3 0 C3.66 0.66 4.32 1.32 5 2 C6.31747324 2.69748583 7.64914193 3.36959957 9 4 C8.34 5.32 7.68 6.64 7 8 C5.02 8 3.04 8 1 8 C0.67 5.36 0.34 2.72 0 0 Z " fill="#0348A9" transform="translate(176,72)"/>
<path d="M0 0 C2.375 -0.125 2.375 -0.125 5 0 C7 2 7 2 7 6 C5.96359375 6.03738281 4.9271875 6.07476562 3.859375 6.11328125 C2.48954816 6.17895788 1.11975809 6.24540464 -0.25 6.3125 C-0.93191406 6.33505859 -1.61382812 6.35761719 -2.31640625 6.38085938 C-6.45151296 6.60166604 -8.97914434 7.09593 -12 10 C-10.125 6.125 -10.125 6.125 -9 5 C-6.65012738 4.76472227 -4.29443961 4.58613583 -1.9375 4.4375 C-0.64714844 4.35371094 0.64320313 4.26992187 1.97265625 4.18359375 C2.97167969 4.12300781 3.97070312 4.06242188 5 4 C5 3.34 5 2.68 5 2 C3.02 2.66 1.04 3.32 -1 4 C-0.67 2.68 -0.34 1.36 0 0 Z " fill="#785F68" transform="translate(279,157)"/>
<path d="M0 0 C0.66 0.66 1.32 1.32 2 2 C5.58343976 2.16677282 5.58343976 2.16677282 9 2 C5.73386305 3.91302307 3.00554752 4.35674661 -0.75 4.625 C-1.73484375 4.69976562 -2.7196875 4.77453125 -3.734375 4.8515625 C-4.48203125 4.90054688 -5.2296875 4.94953125 -6 5 C-5.67 4.01 -5.34 3.02 -5 2 C-6.65 1.67 -8.3 1.34 -10 1 C-10 0.67 -10 0.34 -10 0 C-3.42391304 -1.3451087 -3.42391304 -1.3451087 0 0 Z " fill="#DBD3E0" transform="translate(190,140)"/>
<path d="M0 0 C0.66 0 1.32 0 2 0 C4 3 4 3 4 9 C-0.95 9 -5.9 9 -11 9 C-10.01 8.34 -9.02 7.68 -8 7 C-8 5.68 -8 4.36 -8 3 C-7.34 3.66 -6.68 4.32 -6 5 C-5.01 5 -4.02 5 -3 5 C-2.34 4.01 -1.68 3.02 -1 2 C-0.67 3.65 -0.34 5.3 0 7 C0.66 7 1.32 7 2 7 C1.42415568 4.61435923 0.77772405 2.33317216 0 0 Z " fill="#A197BA" transform="translate(248,106)"/>
<path d="M0 0 C4.71370756 0.64985095 8.57686444 2.51561392 12.8125 4.5625 C13.50537109 4.89185547 14.19824219 5.22121094 14.91210938 5.56054688 C16.61044948 6.36872251 18.30555769 7.18368377 20 8 C18.24316406 9.09716797 18.24316406 9.09716797 16 10 C14.07714844 9.49267578 14.07714844 9.49267578 12.109375 8.4453125 C11.40039062 8.07792969 10.69140625 7.71054687 9.9609375 7.33203125 C9.23132813 6.93371094 8.50171875 6.53539062 7.75 6.125 C7.00492188 5.73441406 6.25984375 5.34382813 5.4921875 4.94140625 C3.65392311 3.97513907 1.82592089 2.98939434 0 2 C0 1.34 0 0.68 0 0 Z " fill="#ADB2D2" transform="translate(146,49)"/>
<path d="M0 0 C-1.875 5.75 -1.875 5.75 -3 8 C-4.32 8 -5.64 8 -7 8 C-7 5.36 -7 2.72 -7 0 C-4.3333581 -1.33332095 -2.83319697 -0.67102033 0 0 Z " fill="#9F7988" transform="translate(349,203)"/>
<path d="M0 0 C4.72726482 1.86831238 9.39286077 3.87167612 14.0625 5.87890625 C16.72629867 6.89554218 19.19349597 7.54084769 22 8 C21.67 8.99 21.34 9.98 21 11 C12.60723309 8.66130408 6.05515546 6.58943388 0 0 Z " fill="#D7D1E3" transform="translate(70,154)"/>
<path d="M0 0 C1.65 0 3.3 0 5 0 C5 0.66 5 1.32 5 2 C5.7425 2.20625 6.485 2.4125 7.25 2.625 C10.79231177 4.39615589 12.02446841 6.63427951 14 10 C12.35 10 10.7 10 9 10 C8.34 8.02 7.68 6.04 7 4 C6.01 4 5.02 4 4 4 C4 4.66 4 5.32 4 6 C3.34 6 2.68 6 2 6 C2 4.68 2 3.36 2 2 C1.34 1.34 0.68 0.68 0 0 Z " fill="#114EA1" transform="translate(98,120)"/>
<path d="M0 0 C2 1.8125 2 1.8125 4 4 C4 4.99 4 5.98 4 7 C2.5903653 7.70180531 1.17192359 8.38593958 -0.25 9.0625 C-1.03890625 9.44535156 -1.8278125 9.82820312 -2.640625 10.22265625 C-5.25993522 11.08564091 -6.44855176 10.93045933 -9 10 C-8.01 9.67 -7.02 9.34 -6 9 C-5.67 8.34 -5.34 7.68 -5 7 C-5.66 6.67 -6.32 6.34 -7 6 C-3.71023192 4.90341064 -2.28696233 5.20046862 1 6 C0.67 4.02 0.34 2.04 0 0 Z " fill="#2C66AF" transform="translate(211,125)"/>
<path d="M0 0 C2.64 0 5.28 0 8 0 C7.34 2.64 6.68 5.28 6 8 C4.68 8 3.36 8 2 8 C1.34 5.36 0.68 2.72 0 0 Z " fill="#B58D9C" transform="translate(293,203)"/>
<path d="M0 0 C0.33 0 0.66 0 1 0 C1.33 2.64 1.66 5.28 2 8 C2.33 8 2.66 8 3 8 C3.12117188 8.68707031 3.24234375 9.37414062 3.3671875 10.08203125 C3.61855469 11.43361328 3.61855469 11.43361328 3.875 12.8125 C4.03742188 13.70582031 4.19984375 14.59914062 4.3671875 15.51953125 C4.91188449 18.22727846 4.91188449 18.22727846 7 21 C3.125 19.25 3.125 19.25 2 17 C1.34 18.32 0.68 19.64 0 21 C0 14.07 0 7.14 0 0 Z " fill="#A78B99" transform="translate(346,158)"/>
<path d="M0 0 C2.64 0 5.28 0 8 0 C7.34 2.64 6.68 5.28 6 8 C4.68 8 3.36 8 2 8 C2 6.02 2 4.04 2 2 C1.34 2 0.68 2 0 2 C0 1.34 0 0.68 0 0 Z " fill="#A17B89" transform="translate(367,203)"/>
<path d="M0 0 C0 3.71873182 -1.13235183 6.23418837 -2.5 9.6875 C-2.9640625 10.86699219 -3.428125 12.04648438 -3.90625 13.26171875 C-4.2671875 14.16535156 -4.628125 15.06898438 -5 16 C-5.33 15.34 -5.66 14.68 -6 14 C-8.52733235 13.34444881 -8.52733235 13.34444881 -11 13 C-10.38125 12.773125 -9.7625 12.54625 -9.125 12.3125 C-6.38589791 10.62070165 -5.94975528 9.00755839 -5 6 C-4.34 6 -3.68 6 -3 6 C-2.87625 5.38125 -2.7525 4.7625 -2.625 4.125 C-2 2 -2 2 0 0 Z " fill="#BEA1AB" transform="translate(103,153)"/>
<path d="M0 0 C2.97 0 5.94 0 9 0 C8.125 4.875 8.125 4.875 7 6 C5.00041636 6.04080783 2.99954746 6.04254356 1 6 C0.67 4.02 0.34 2.04 0 0 Z M1 2 C1 2.66 1 3.32 1 4 C2.65 4 4.3 4 6 4 C6 3.34 6 2.68 6 2 C4.35 2 2.7 2 1 2 Z " fill="#745C66" transform="translate(359,167)"/>
<path d="M0 0 C-2.10084209 1.00696568 -4.20579489 2.0053589 -6.3125 3 C-7.48425781 3.556875 -8.65601563 4.11375 -9.86328125 4.6875 C-13 6 -13 6 -16 6 C-16.33 6.99 -16.66 7.98 -17 9 C-18.32 8.67 -19.64 8.34 -21 8 C-5.40447717 -1.69621037 -5.40447717 -1.69621037 0 0 Z " fill="#7881B4" transform="translate(252,79)"/>
<path d="M0 0 C5.75894522 -0.20567661 10.52262464 0.11124988 16 2 C17.5 4.125 17.5 4.125 18 6 C13.95295419 5.27595226 10.10929598 4.16553713 6.1875 2.9375 C5.02605469 2.57527344 3.86460937 2.21304688 2.66796875 1.83984375 C1.78753906 1.56269531 0.90710938 1.28554687 0 1 C0 0.67 0 0.34 0 0 Z " fill="#6680BA" transform="translate(140,65)"/>
<path d="M0 0 C3.14958831 3.42346555 3.56179109 6.44262737 4 11 C1.69 11 -0.62 11 -3 11 C-2.53199289 6.94393835 -2.12046792 3.53411321 0 0 Z M0 4 C-0.66 5.98 -1.32 7.96 -2 10 C-0.68 10 0.64 10 2 10 C1.67 8.02 1.34 6.04 1 4 C0.67 4 0.34 4 0 4 Z " fill="#917B82" transform="translate(113,155)"/>
<path d="M0 0 C0.99 0.33 1.98 0.66 3 1 C3 1.66 3 2.32 3 3 C4.65 3.33 6.3 3.66 8 4 C8 5.32 8 6.64 8 8 C3.68607774 7.5206753 1.83430453 6.2542015 -1 3 C-0.67 2.01 -0.34 1.02 0 0 Z " fill="#0D4BA6" transform="translate(185,80)"/>
<path d="M0 0 C2.5215021 -0.08172936 5.04029917 -0.14083373 7.5625 -0.1875 C8.26697266 -0.21263672 8.97144531 -0.23777344 9.69726562 -0.26367188 C14.88003315 -0.33532304 18.36264182 0.67827402 23 3 C19.89484695 3.96804074 17.6488104 3.98121797 14.453125 3.44140625 C13.60878906 3.30283203 12.76445312 3.16425781 11.89453125 3.02148438 C11.02183594 2.87001953 10.14914063 2.71855469 9.25 2.5625 C8.36183594 2.41490234 7.47367187 2.26730469 6.55859375 2.11523438 C4.37108664 1.75064986 2.18510358 1.37867934 0 1 C0 0.67 0 0.34 0 0 Z " fill="#7E9CD1" transform="translate(117,61)"/>
<path d="M0 0 C0.99 0 1.98 0 3 0 C2.67 1.65 2.34 3.3 2 5 C-2.97093824 4.58846263 -7.44508386 4.20399168 -12 2 C-7.91556885 0.46833832 -4.20544343 1.36918348 0 2 C0 1.34 0 0.68 0 0 Z " fill="#4171B8" transform="translate(91,157)"/>
<path d="M0 0 C5.875 2.75 5.875 2.75 7 5 C7.639375 5.12375 8.27875 5.2475 8.9375 5.375 C11 6 11 6 12.25 8.0625 C12.4975 8.701875 12.745 9.34125 13 10 C8.8911959 9.47470631 6.74480159 8.33192009 3.6875 5.5625 C2.99011719 4.94503906 2.29273438 4.32757813 1.57421875 3.69140625 C0 2 0 2 0 0 Z " fill="#556FB0" transform="translate(59,144)"/>
<path d="M0 0 C5.28 0.33 10.56 0.66 16 1 C16 1.66 16 2.32 16 3 C10.25337081 4.00818056 6.46838257 4.12039324 1 2 C0.67 1.34 0.34 0.68 0 0 Z " fill="#67525A" transform="translate(386,188)"/>
<path d="M0 0 C-0.93972656 0.83144531 -0.93972656 0.83144531 -1.8984375 1.6796875 C-2.71570313 2.40414062 -3.53296875 3.12859375 -4.375 3.875 C-5.59316406 4.95394531 -5.59316406 4.95394531 -6.8359375 6.0546875 C-8.25795079 7.33295938 -9.64794586 8.64794586 -11 10 C-11.36625971 5.48279689 -11.36625971 5.48279689 -9.625 3.1875 C-8 2 -8 2 -6 2 C-6 1.34 -6 0.68 -6 0 C-3.50907189 -1.24546405 -2.58919267 -0.7767578 0 0 Z " fill="#225BAA" transform="translate(105,146)"/>
<path d="M0 0 C1.98 0 3.96 0 6 0 C6 0.66 6 1.32 6 2 C6.99 2.33 7.98 2.66 9 3 C9 3.66 9 4.32 9 5 C5.37 5 1.74 5 -2 5 C-1.34 3.35 -0.68 1.7 0 0 Z M1 2 C0.67 2.66 0.34 3.32 0 4 C2.31 4 4.62 4 7 4 C6.67 3.34 6.34 2.68 6 2 C4.35 2 2.7 2 1 2 Z " fill="#7D666E" transform="translate(425,157)"/>
<path d="M0 0 C0.66 0 1.32 0 2 0 C0.25 4.875 0.25 4.875 -2 6 C-2.43083835 7.99108405 -2.43083835 7.99108405 -2.5625 10.3125 C-2.80590173 13.31776628 -3.1945856 16.0911893 -4 19 C-5.48855749 14.53432752 -6.14767116 9.51965987 -4.140625 5.11328125 C-2.90834657 3.26932839 -1.57086336 1.57086336 0 0 Z " fill="#26171C" transform="translate(384,152)"/>
<path d="M0 0 C0.66 0.33 1.32 0.66 2 1 C1.875 2.75 1.875 2.75 1 5 C-2.0625 7.25 -2.0625 7.25 -5 9 C-5.33 7.68 -5.66 6.36 -6 5 C-4.02 3.35 -2.04 1.7 0 0 Z " fill="#F3F6F4" transform="translate(106,146)"/>
<path d="M0 0 C0.66 0.33 1.32 0.66 2 1 C1.27683594 1.60134766 1.27683594 1.60134766 0.5390625 2.21484375 C-4.46636041 6.71972437 -6.25814264 10.32328375 -7 17 C-7.33 17 -7.66 17 -8 17 C-8.42034404 10.90501137 -8.07814737 7.87112047 -4 3 C-1.75 1.125 -1.75 1.125 0 0 Z " fill="#27191D" transform="translate(172,151)"/>
<path d="M0 0 C2.475 0.495 2.475 0.495 5 1 C5.99 4.63 6.98 8.26 8 12 C4.72257902 8.89973691 2.06895163 6.02901106 0 2 C0 1.34 0 0.68 0 0 Z " fill="#6679B8" transform="translate(96,99)"/>
<path d="M0 0 C0.33 0 0.66 0 1 0 C1 2.64 1 5.28 1 8 C-2.47823115 9.15941038 -4.45895578 8.70820884 -8 8 C-8 5.69 -8 3.38 -8 1 C-7.67 1 -7.34 1 -7 1 C-7 2.98 -7 4.96 -7 7 C-6.34 7 -5.68 7 -5 7 C-4.67 6.01 -4.34 5.02 -4 4 C-2.68 4.99 -1.36 5.98 0 7 C0 4.69 0 2.38 0 0 Z " fill="#BD94A5" transform="translate(202,203)"/>
<path d="M0 0 C2.64 0 5.28 0 8 0 C7.125 3.875 7.125 3.875 6 5 C3.66702567 5.04092937 1.33294775 5.04241723 -1 5 C-0.67 3.35 -0.34 1.7 0 0 Z M0 2 C0 2.66 0 3.32 0 4 C1.65 4 3.3 4 5 4 C5.33 3.34 5.66 2.68 6 2 C4.02 2 2.04 2 0 2 Z " fill="#8C7077" transform="translate(278,167)"/>
<path d="M0 0 C1.65 0 3.3 0 5 0 C4.67 0.99 4.34 1.98 4 3 C1.63671875 3.984375 1.63671875 3.984375 -1.3125 4.75 C-2.76076172 5.14445313 -2.76076172 5.14445313 -4.23828125 5.546875 C-6.9370726 5.98967528 -8.45283955 5.89543883 -11 5 C-4.5 2 -4.5 2 0 2 C0 1.34 0 0.68 0 0 Z " fill="#D6BECA" transform="translate(221,133)"/>
<path d="M0 0 C4.571279 0.54855348 8.67435795 1.41744803 13 3 C13 3.66 13 4.32 13 5 C5.26487524 5.2975048 5.26487524 5.2975048 2 3 C1.34 2.01 0.68 1.02 0 0 Z " fill="#5971AF" transform="translate(125,68)"/>
<path d="M0 0 C1.65 0 3.3 0 5 0 C2.60523231 2.85801784 0.69509117 3.57264465 -2.9375 4.25 C-3.79214844 4.42015625 -4.64679687 4.5903125 -5.52734375 4.765625 C-7.99533017 4.99955736 -9.66014099 4.76004701 -12 4 C-7.8794254 2.00214565 -4.54805635 1.82164485 0 2 C0 1.34 0 0.68 0 0 Z " fill="#1D4C9C" transform="translate(53,41)"/>
<path d="M0 0 C0.33 0 0.66 0 1 0 C1 1.65 1 3.3 1 5 C1.99 5 2.98 5 4 5 C4 3.35 4 1.7 4 0 C4.66 0 5.32 0 6 0 C5.67 2.64 5.34 5.28 5 8 C3.35 7.67 1.7 7.34 0 7 C0 4.69 0 2.38 0 0 Z " fill="#87606E" transform="translate(355,204)"/>
<path d="M0 0 C0.99 0.495 0.99 0.495 2 1 C2.96088383 3.88265149 3.11670941 5.67662271 3.09765625 8.66796875 C3.09282227 10.00698242 3.09282227 10.00698242 3.08789062 11.37304688 C3.07951172 12.30181641 3.07113281 13.23058594 3.0625 14.1875 C3.05798828 15.12787109 3.05347656 16.06824219 3.04882812 17.03710938 C3.03704626 19.35813712 3.02059558 21.67903644 3 24 C2.67 24 2.34 24 2 24 C1.93941406 22.74703125 1.87882812 21.4940625 1.81640625 20.203125 C1.73197744 18.55207276 1.64733061 16.90103165 1.5625 15.25 C1.52318359 14.425 1.48386719 13.6 1.44335938 12.75 C1.40146484 11.95078125 1.35957031 11.1515625 1.31640625 10.328125 C1.27974854 9.5949707 1.24309082 8.86181641 1.20532227 8.10644531 C0.99875901 5.98726845 0.53281401 4.05757766 0 2 C0 1.34 0 0.68 0 0 Z " fill="#1B0B11" transform="translate(292,154)"/>
<path d="M0 0 C-0.6875 1.9375 -0.6875 1.9375 -2 4 C-4.625 4.75 -4.625 4.75 -7 5 C-7.33 3.68 -7.66 2.36 -8 1 C-5.10765685 0.17361624 -3.11257569 0 0 0 Z " fill="#0149B1" transform="translate(175,69)"/>
<path d="M0 0 C1.65 0 3.3 0 5 0 C5 1.98 5 3.96 5 6 C3.35 6 1.7 6 0 6 C0 4.02 0 2.04 0 0 Z " fill="#795865" transform="translate(395,204)"/>
<path d="M0 0 C3.1875 0.3125 3.1875 0.3125 5.5625 2.3125 C6.09875 2.9725 6.635 3.6325 7.1875 4.3125 C4.1875 4.3125 4.1875 4.3125 0.6875 3.6875 C-2.92186483 2.92305449 -2.92186483 2.92305449 -5.8125 5.3125 C-3.42613636 0.38068182 -3.42613636 0.38068182 0 0 Z " fill="#856870" transform="translate(147.8125,157.6875)"/>
<path d="M0 0 C2.51083114 1.25541557 2.87125446 2.50063488 4 5 C1.1875 6.5625 1.1875 6.5625 -2 8 C-2.99 7.67 -3.98 7.34 -5 7 C-4.01 6.34 -3.02 5.68 -2 5 C-0.79549696 2.44816596 -0.79549696 2.44816596 0 0 Z " fill="#0F4FAA" transform="translate(249,122)"/>
<path d="M0 0 C1.67542976 0.28604898 3.34385343 0.61781233 5 1 C5 2.32 5 3.64 5 5 C3.68 5.33 2.36 5.66 1 6 C0.34 4.35 -0.32 2.7 -1 1 C-0.67 0.67 -0.34 0.34 0 0 Z " fill="#696EA8" transform="translate(234,104)"/>
<path d="M0 0 C2.75457718 0.37994168 3.82020574 0.8073633 5.75 2.875 C7 5 7 5 7 8 C6.01 8 5.02 8 4 8 C0 3.77142857 0 3.77142857 0 0 Z " fill="#375EA4" transform="translate(194,88)"/>
<path d="M0 0 C0.66 0 1.32 0 2 0 C2 0.66 2 1.32 2 2 C3.65 1.67 5.3 1.34 7 1 C6.34 2.65 5.68 4.3 5 6 C2.97954558 5.39816251 0.97888961 4.72693904 -1 4 C-1.33 3.34 -1.66 2.68 -2 2 C-1.34 2 -0.68 2 0 2 C0 1.34 0 0.68 0 0 Z " fill="#1A57AD" transform="translate(74,152)"/>
<path d="M0 0 C1.98 0.99 3.96 1.98 6 3 C6 4.32 6 5.64 6 7 C3.69 7 1.38 7 -1 7 C0.32 6.67 1.64 6.34 3 6 C3 5.34 3 4.68 3 4 C2.34 4 1.68 4 1 4 C0.67 2.68 0.34 1.36 0 0 Z " fill="#5878B2" transform="translate(118,135)"/>
<path d="M0 0 C1.9375 0.375 1.9375 0.375 4 1 C4.33 1.66 4.66 2.32 5 3 C5.99 3.66 6.98 4.32 8 5 C7.01 6.485 7.01 6.485 6 8 C1.125 3.375 1.125 3.375 0 0 Z " fill="#4561AA" transform="translate(104,111)"/>
<path d="M0 0 C4.95696581 1.23924145 7.11658466 2.78577758 10 7 C9.01 7.33 8.02 7.66 7 8 C5.83035398 6.8572081 4.66435444 5.71068285 3.5 4.5625 C2.8503125 3.92441406 2.200625 3.28632812 1.53125 2.62890625 C0 1 0 1 0 0 Z " fill="#D6D2E8" transform="translate(193,104)"/>
<path d="M0 0 C0.66 0 1.32 0 2 0 C2 0.66 2 1.32 2 2 C2.99 2 3.98 2 5 2 C5.33 1.34 5.66 0.68 6 0 C6 1.98 6 3.96 6 6 C5.67 5.34 5.34 4.68 5 4 C4.01 4 3.02 4 2 4 C2 4.66 2 5.32 2 6 C1.34 6 0.68 6 0 6 C0 4.02 0 2.04 0 0 Z " fill="#765360" transform="translate(307,204)"/>
<path d="M0 0 C0.99 0 1.98 0 3 0 C3 2.64 3 5.28 3 8 C2.01 8 1.02 8 0 8 C0 5.36 0 2.72 0 0 Z " fill="#9C7384" transform="translate(118,203)"/>
<path d="M0 0 C0.66 0.33 1.32 0.66 2 1 C1.50628906 1.47050781 1.01257813 1.94101563 0.50390625 2.42578125 C-0.13675781 3.04839844 -0.77742187 3.67101562 -1.4375 4.3125 C-2.07558594 4.92738281 -2.71367187 5.54226562 -3.37109375 6.17578125 C-5.2221418 8.00644056 -5.2221418 8.00644056 -6 11 C-6.99 10.67 -7.98 10.34 -9 10 C-8.06409496 8.8944811 -7.12620142 7.79064547 -6.1875 6.6875 C-5.66542969 6.07261719 -5.14335937 5.45773438 -4.60546875 4.82421875 C-3.12827531 3.14575321 -1.59960869 1.56117966 0 0 Z " fill="#154A9D" transform="translate(234,117)"/>
<path d="M0 0 C0.66 0.66 1.32 1.32 2 2 C4.58354218 2.16687448 4.58354218 2.16687448 7 2 C6.67 3.32 6.34 4.64 6 6 C3.03 5.505 3.03 5.505 0 5 C0 3.35 0 1.7 0 0 Z " fill="#936E7B" transform="translate(209,206)"/>
<path d="M0 0 C0.99 0.33 1.98 0.66 3 1 C3.74513723 3.09993221 4 4.77431099 4 7 C2.68 7 1.36 7 0 7 C0 4.69 0 2.38 0 0 Z " fill="#775764" transform="translate(224,204)"/>
<path d="M0 0 C1.27230469 0.00902344 2.54460937 0.01804687 3.85546875 0.02734375 C5.31919922 0.04474609 5.31919922 0.04474609 6.8125 0.0625 C6.8125 0.3925 6.8125 0.7225 6.8125 1.0625 C5.96945313 1.11148438 5.12640625 1.16046875 4.2578125 1.2109375 C3.16210938 1.28570312 2.06640625 1.36046875 0.9375 1.4375 C-0.69832031 1.54191406 -0.69832031 1.54191406 -2.3671875 1.6484375 C-5.31796474 1.79503491 -5.31796474 1.79503491 -7.1875 4.0625 C-8.1775 3.0725 -9.1675 2.0825 -10.1875 1.0625 C-6.62704823 -0.12431726 -3.74941663 -0.03439832 0 0 Z " fill="#AFAECB" transform="translate(230.1875,99.9375)"/>
<path d="M0 0 C0.99 0.99 1.98 1.98 3 3 C2.01 4.485 2.01 4.485 1 6 C-2.125 6.1875 -2.125 6.1875 -5 6 C-4.34 5.67 -3.68 5.34 -3 5 C-3 4.34 -3 3.68 -3 3 C-1.5 1.375 -1.5 1.375 0 0 Z " fill="#0D4EAB" transform="translate(182,74)"/>
<path d="M0 0 C0.66 0 1.32 0 2 0 C2.66 2.31 3.32 4.62 4 7 C3.34 7 2.68 7 2 7 C2 6.34 2 5.68 2 5 C0.68 5.33 -0.64 5.66 -2 6 C-1.34 4.02 -0.68 2.04 0 0 Z " fill="#724E5C" transform="translate(184,204)"/>
<path d="M0 0 C4.03520597 1.58962659 8.01811282 3.28232318 12 5 C11.67 5.66 11.34 6.32 11 7 C6.00724943 5.72278474 3.42388092 3.82669043 0 0 Z " fill="#C1C0DF" transform="translate(70,154)"/>
<path d="M0 0 C0.61875 0.268125 1.2375 0.53625 1.875 0.8125 C2.205 1.8025 2.535 2.7925 2.875 3.8125 C1.225 4.4725 -0.425 5.1325 -2.125 5.8125 C-2.455 4.8225 -2.785 3.8325 -3.125 2.8125 C-3.785 2.4825 -4.445 2.1525 -5.125 1.8125 C-2.125 -0.1875 -2.125 -0.1875 0 0 Z " fill="#D1E1F0" transform="translate(109.125,144.1875)"/>
<path d="M0 0 C0.33 1.32 0.66 2.64 1 4 C-1.475 5.485 -1.475 5.485 -4 7 C-4.33 5.68 -4.66 4.36 -5 3 C-4.34 3 -3.68 3 -3 3 C-3 2.34 -3 1.68 -3 1 C-2.01 0.67 -1.02 0.34 0 0 Z " fill="#1051AC" transform="translate(290,81)"/>
<path d="M0 0 C2.96404505 2.80804268 5.44499019 5.18315774 7 9 C6.34 9 5.68 9 5 9 C5 8.34 5 7.68 5 7 C3.68 6.67 2.36 6.34 1 6 C0.67 4.02 0.34 2.04 0 0 Z " fill="#3163AE" transform="translate(204,116)"/>
<path d="M0 0 C4.24822374 0.47202486 6.19989709 2.96655518 9 6 C2.35384615 4.52307692 2.35384615 4.52307692 0.5625 1.875 C0.376875 1.25625 0.19125 0.6375 0 0 Z " fill="#C7BED5" transform="translate(189,100)"/>
<path d="M0 0 C1.875 0.3125 1.875 0.3125 4 1 C6 4 6 4 5.625 6.1875 C5.41875 6.785625 5.2125 7.38375 5 8 C0 2.25 0 2.25 0 0 Z " fill="#6373AD" transform="translate(90,91)"/>
<path d="M0 0 C3.8063457 0.67170806 7.35206816 1.72746564 11 3 C11 3.33 11 3.66 11 4 C6.78121808 4.19622241 3.82989106 3.80230168 0 2 C0 1.34 0 0.68 0 0 Z " fill="#124BA0" transform="translate(136,73)"/>
<path d="M0 0 C2.25 0.125 2.25 0.125 5 1 C7.3125 4.0625 7.3125 4.0625 9 7 C5.18315774 5.44499019 2.80804268 2.96404505 0 0 Z " fill="#6879B1" transform="translate(66,69)"/>
<path d="M0 0 C4.7517398 0.43197635 6.92000054 1.32769295 10 5 C5.75354935 5 3.61475228 3.18249194 0 1 C0 0.67 0 0.34 0 0 Z " fill="#6D79B1" transform="translate(47,57)"/>
<path d="M0 0 C-0.33 1.65 -0.66 3.3 -1 5 C-3.475 4.01 -3.475 4.01 -6 3 C-6 2.34 -6 1.68 -6 1 C-3 0 -3 0 0 0 Z " fill="#896572" transform="translate(147,207)"/>
<path d="M0 0 C0.66 0.33 1.32 0.66 2 1 C0.6875 4.4375 0.6875 4.4375 -1 8 C-1.99 8.33 -2.98 8.66 -4 9 C-2.80100302 5.9168649 -1.52299523 2.93720508 0 0 Z " fill="#312428" transform="translate(105,151)"/>
<path d="M0 0 C0.66 0.33 1.32 0.66 2 1 C0.02 3.31 -1.96 5.62 -4 8 C-4.99 7.67 -5.98 7.34 -7 7 C-4.69 4.69 -2.38 2.38 0 0 Z " fill="#D0E4F9" transform="translate(102,147)"/>
<path d="M0 0 C4.875 4.75 4.875 4.75 6 7 C4.35 7 2.7 7 1 7 C0.67 4.69 0.34 2.38 0 0 Z " fill="#6890CB" transform="translate(106,123)"/>
<path d="M0 0 C4.571279 0.54855348 8.67435795 1.41744803 13 3 C9.57056481 4.18771723 7.62215325 3.80226223 4.25 2.5625 C3.45078125 2.27503906 2.6515625 1.98757812 1.828125 1.69140625 C1.22484375 1.46324219 0.6215625 1.23507813 0 1 C0 0.67 0 0.34 0 0 Z " fill="#164B9F" transform="translate(120,42)"/>
<path d="M0 0 C0.66 0.33 1.32 0.66 2 1 C2 2.98 2 4.96 2 7 C1.01 7.495 1.01 7.495 0 8 C0 7.34 0 6.68 0 6 C-0.99 5.67 -1.98 5.34 -3 5 C-2.01 5 -1.02 5 0 5 C0 4.34 0 3.68 0 3 C-0.99 2.67 -1.98 2.34 -3 2 C-2.01 2 -1.02 2 0 2 C0 1.34 0 0.68 0 0 Z " fill="#C7A3B0" transform="translate(413,203)"/>
<path d="M0 0 C2.97903734 2.97903734 4 5.80285329 4 10 C3.01 9.67 2.02 9.34 1 9 C0.67 6.03 0.34 3.06 0 0 Z " fill="#8A6871" transform="translate(126,159)"/>
<path d="M0 0 C1.32 0.33 2.64 0.66 4 1 C4 1.99 4 2.98 4 4 C1.69 4 -0.62 4 -3 4 C-2.505 3.525625 -2.01 3.05125 -1.5 2.5625 C0.11542197 1.24076302 0.11542197 1.24076302 0 0 Z " fill="#F6E8F1" transform="translate(124,141)"/>
<path d="M0 0 C0.66 0.33 1.32 0.66 2 1 C0.02 3.31 -1.96 5.62 -4 8 C-4.33 7.01 -4.66 6.02 -5 5 C-3.35 3.35 -1.7 1.7 0 0 Z " fill="#C8E0F4" transform="translate(280,92)"/>
<path d="M0 0 C2.475 0.495 2.475 0.495 5 1 C5.33 2.32 5.66 3.64 6 5 C4.125 4.75 4.125 4.75 2 4 C0.75 1.9375 0.75 1.9375 0 0 Z " fill="#4060A8" transform="translate(171,75)"/>
<path d="M0 0 C1.98 0 3.96 0 6 0 C6 0.66 6 1.32 6 2 C5.01 2 4.02 2 3 2 C3 3.65 3 5.3 3 7 C2.67 7 2.34 7 2 7 C2 5.35 2 3.7 2 2 C1.34 2 0.68 2 0 2 C0 1.34 0 0.68 0 0 Z " fill="#815B6A" transform="translate(295,203)"/>
<path d="M0 0 C1.7074998 1.28062485 3.37373596 2.61767557 5 4 C5 4.66 5 5.32 5 6 C3.68 5.67 2.36 5.34 1 5 C0.67 3.35 0.34 1.7 0 0 Z " fill="#FAEDF3" transform="translate(202,92)"/>
</svg>
