<?xml version="1.0" standalone="no"?>
<!DOCTYPE svg PUBLIC "-//W3C//DTD SVG 20010904//EN"
 "http://www.w3.org/TR/2001/REC-SVG-20010904/DTD/svg10.dtd">
<svg version="1.0" xmlns="http://www.w3.org/2000/svg"
 width="500.000000pt" height="500.000000pt" viewBox="0 0 500.000000 500.000000"
 preserveAspectRatio="xMidYMid meet">

<g transform="translate(0.000000,500.000000) scale(0.100000,-0.100000)"
fill="#000000" stroke="none">
<path d="M2356 4843 c-2 -10 -17 -151 -31 -313 -15 -162 -29 -302 -32 -310 -3
-9 -20 15 -43 65 -21 44 -33 82 -28 84 5 1 1 9 -9 17 -16 12 -16 15 -3 24 8 5
29 10 46 10 24 0 33 5 37 21 6 21 4 21 -56 15 l-62 -6 -57 112 c-77 155 -107
194 -159 208 -23 7 -58 9 -78 5 -54 -10 -150 -55 -155 -74 -19 -61 -75 -558
-76 -666 0 -16 -7 -12 -34 20 -34 40 -34 40 -13 52 26 15 14 17 -13 3 -20 -10
-50 -4 -50 11 0 4 12 15 28 23 15 8 23 15 17 15 -5 0 -21 -6 -35 -14 -14 -8
-33 -14 -42 -15 -37 0 -15 22 57 57 51 25 75 43 75 55 0 15 -4 16 -25 8 -40
-15 -87 -40 -132 -71 -38 -27 -49 -29 -132 -29 -114 0 -163 17 -186 66 -19 41
-17 73 8 88 19 12 32 1 82 -69 20 -27 22 -28 60 -14 56 19 145 76 145 93 0 22
-81 137 -113 160 -43 32 -149 34 -210 6 -62 -29 -143 -102 -169 -153 -44 -88
-31 -219 32 -305 37 -52 78 -78 134 -86 l42 -7 -54 -57 c-122 -130 -247 -312
-323 -467 -136 -280 -199 -626 -170 -947 33 -384 100 -626 245 -882 56 -101
61 -107 64 -78 2 23 -7 49 -32 90 -62 103 -137 292 -185 472 -96 356 -80 817
38 1150 45 124 137 312 189 385 55 76 217 277 244 301 22 21 68 41 68 30 0 -3
-14 -22 -32 -43 l-32 -38 40 38 c36 33 45 37 92 37 43 0 58 -5 77 -25 14 -13
25 -31 25 -40 0 -50 -45 -73 -164 -84 l-71 -6 3 -80 c1 -43 6 -83 11 -88 14
-14 111 -9 191 9 43 9 91 30 127 53 52 34 77 57 135 130 10 11 28 21 40 21 13
1 64 11 113 23 l90 22 3 73 3 74 76 34 c41 19 77 33 79 31 3 -2 15 -35 28 -73
28 -83 36 -86 165 -54 77 19 109 21 296 18 l210 -4 249 -66 c174 -47 255 -64
270 -59 16 7 28 31 49 93 40 124 40 123 -45 148 -186 55 -213 63 -220 66 -8 5
50 158 62 162 5 2 6 10 3 18 -8 21 27 18 99 -10 71 -26 192 -86 250 -122 33
-21 39 -22 44 -9 4 9 -3 23 -17 35 -31 26 -230 125 -299 148 -51 18 -54 20
-57 55 -1 27 2 37 13 37 8 0 13 3 12 8 -1 4 4 21 11 37 35 83 81 221 79 233
-2 8 -43 27 -93 43 -98 31 -120 35 -130 19 -4 -6 -53 -140 -110 -298 l-103
-287 -143 4 c-79 2 -145 5 -147 6 -2 2 0 30 4 64 l7 61 71 2 71 2 -68 5 c-37
3 -67 9 -67 14 0 4 0 11 0 16 0 6 24 12 53 14 l52 3 -52 2 c-46 2 -53 5 -53
23 0 19 4 20 83 13 45 -3 117 -12 159 -18 65 -11 78 -10 83 2 7 19 6 32 -2 30
-5 -1 -46 4 -93 11 -47 7 -115 13 -152 14 l-68 2 -1 40 c-1 22 0 45 1 50 1 6
8 66 15 135 10 94 10 128 2 136 -7 7 -60 15 -119 18 -97 7 -107 6 -112 -11z
m-400 -504 c23 -59 26 -72 13 -80 -27 -17 -49 -10 -49 16 0 14 -5 44 -12 68
-11 45 -6 83 11 73 5 -4 22 -38 37 -77z m271 -251 c13 -27 12 -28 -11 -28 -17
0 -25 7 -28 25 -3 14 -1 25 3 25 5 0 9 8 10 18 0 13 2 14 6 2 3 -8 12 -27 20
-42z"/>
<path d="M3636 4533 c-7 -24 -136 -580 -136 -586 0 -2 -32 -44 -70 -92 -39
-49 -69 -95 -68 -104 4 -22 147 -110 180 -110 30 -1 75 50 62 70 -4 7 -3 9 4
5 6 -4 32 25 63 69 28 41 58 75 65 75 8 0 14 4 14 9 0 5 7 12 16 15 11 4 28
-6 51 -31 l35 -38 -31 42 c-30 39 -29 60 1 48 12 -5 179 -220 245 -316 61 -89
161 -295 196 -404 19 -60 48 -166 63 -235 26 -118 28 -139 28 -380 0 -222 -3
-270 -22 -370 -69 -361 -77 -386 -164 -570 -77 -163 -104 -203 -135 -197 -13
2 -26 0 -29 -4 -6 -10 -86 -5 -104 6 -29 18 -46 105 -21 105 4 0 22 -16 41
-35 19 -19 43 -35 53 -35 14 0 17 -4 11 -13 -5 -7 3 1 18 18 15 16 33 30 41
30 8 0 27 15 42 34 24 28 27 36 16 53 -10 16 -7 27 19 72 16 30 30 57 30 62 0
5 -14 -15 -30 -43 -17 -29 -34 -53 -38 -53 -5 0 -21 14 -38 31 -41 43 -76 59
-129 59 -57 0 -98 -17 -153 -65 -89 -77 -116 -166 -83 -278 16 -55 77 -129
121 -147 l31 -13 -43 -44 c-64 -66 -178 -157 -186 -149 -3 4 23 34 58 68 l65
60 -63 -52 c-35 -30 -67 -49 -71 -44 -4 5 -25 52 -46 104 -20 52 -39 100 -41
106 -3 5 29 25 71 43 41 18 75 38 75 44 0 7 -12 42 -27 79 -23 59 -29 68 -52
68 -14 0 -123 -45 -242 -100 -119 -55 -230 -100 -246 -100 -16 0 -125 -20
-241 -44 -200 -41 -260 -47 -174 -17 20 8 52 27 70 42 19 17 44 29 61 29 16 0
47 6 69 14 22 8 74 17 114 21 91 8 122 14 114 23 -4 3 8 11 26 17 32 11 35 17
91 176 32 90 60 173 63 184 55 192 204 637 219 654 11 11 19 3 50 -45 41 -65
99 -130 130 -146 11 -5 4 4 -16 20 -20 17 -55 61 -79 97 l-43 66 20 37 c11 20
35 79 53 131 42 125 37 172 -33 262 l-27 36 21 48 c45 101 34 205 -33 318 -15
26 -28 50 -28 53 0 16 -74 116 -116 158 -74 73 -139 99 -244 99 -47 0 -93 -4
-102 -9 -11 -6 4 -9 50 -10 68 0 176 -29 167 -44 -8 -12 23 -33 37 -24 7 4 10
4 6 0 -4 -5 10 -26 30 -48 20 -22 49 -60 64 -86 26 -45 66 -168 57 -177 -14
-13 -48 10 -51 34 -3 27 -5 28 -75 15 -25 -5 -35 -2 -50 16 -30 36 -52 55 -91
77 -19 11 -21 11 -16 -5 3 -9 -1 -6 -9 7 -9 16 -25 25 -43 27 -16 1 -49 6 -74
12 -25 7 -62 12 -82 12 -36 0 -37 1 -44 46 -8 56 5 88 46 109 18 9 30 19 27
21 -3 3 -23 -4 -44 -15 l-40 -20 -13 52 c-38 152 -161 281 -314 329 -89 28
-203 22 -281 -16 -85 -42 -187 -143 -230 -228 -19 -39 -35 -77 -35 -84 0 -10
-18 -12 -83 -7 -65 4 -96 2 -138 -12 -164 -54 -262 -145 -316 -292 -30 -83
-41 -218 -24 -291 l13 -51 -42 -52 c-40 -51 -42 -56 -38 -110 3 -45 12 -69 39
-111 26 -38 38 -69 42 -109 6 -51 4 -60 -25 -105 -57 -88 -106 -140 -160 -169
-45 -25 -64 -30 -125 -30 -40 0 -73 -4 -73 -9 0 -5 33 -7 74 -4 127 8 193 53
295 201 30 42 55 77 57 77 12 0 39 -81 89 -270 96 -364 213 -746 237 -776 8
-11 121 -41 218 -60 19 -3 47 -12 61 -20 15 -7 54 -18 87 -23 33 -5 80 -19
104 -30 l43 -20 -143 4 -142 5 -54 36 c-30 20 -63 34 -73 32 -10 -2 -40 -35
-67 -73 -27 -39 -46 -63 -44 -55 25 74 31 121 20 145 -13 28 -65 54 -123 62
-35 5 -37 3 -93 -73 -31 -43 -56 -74 -56 -69 0 6 12 46 26 89 13 44 21 83 17
87 -5 5 -40 20 -77 33 -61 21 -71 28 -88 62 -26 54 -61 88 -128 123 -75 40
-132 48 -202 27 -96 -28 -187 -129 -188 -209 0 -15 16 -76 36 -135 34 -102 35
-108 20 -139 -12 -26 -22 -33 -44 -33 -16 0 -36 8 -44 17 -19 22 -49 79 -43
84 2 2 -9 19 -23 37 l-27 32 -62 -29 c-40 -19 -63 -36 -63 -47 0 -29 63 -136
107 -179 58 -58 134 -95 195 -95 61 0 105 18 156 64 22 20 44 36 48 36 5 0 24
-13 41 -29 31 -28 33 -28 39 -9 4 14 -3 29 -23 52 -17 17 -28 39 -26 48 6 25
18 22 41 -7 11 -14 23 -25 27 -25 4 0 -9 18 -29 40 -26 29 -35 48 -35 72 1 18
-10 65 -25 104 -35 97 -34 135 4 168 30 24 60 26 60 2 0 -6 -11 -28 -25 -48
-14 -20 -25 -43 -25 -51 0 -22 110 -101 137 -99 13 1 23 1 23 -1 0 -1 -38
-119 -85 -262 -46 -143 -81 -263 -77 -267 12 -12 153 -68 171 -68 9 0 43 37
76 85 56 79 87 109 70 68 -4 -10 -11 -31 -15 -48 -5 -16 -16 -51 -25 -78 -9
-26 -15 -54 -12 -61 7 -19 154 -75 179 -68 15 4 47 38 75 81 1 2 46 -16 100
-39 54 -23 104 -45 111 -47 10 -4 13 2 10 22 -3 24 -13 31 -86 59 -45 18 -87
37 -93 43 -18 18 0 35 30 28 24 -6 25 -5 7 8 -19 14 -18 17 24 78 144 213 213
310 217 306 2 -3 -5 -58 -16 -123 -39 -227 -72 -507 -61 -518 6 -6 113 -14
250 -19 211 -8 244 -8 280 7 22 9 53 16 68 16 36 0 55 13 50 36 -3 16 -11 19
-56 16 -43 -3 -52 -1 -52 12 0 9 10 21 23 26 17 7 18 9 5 9 -11 1 -18 9 -18
21 0 30 -28 37 -182 45 l-138 7 0 33 c0 56 18 65 133 65 141 0 144 1 152 62 5
38 4 53 -6 59 -10 6 -11 9 -1 9 19 0 14 28 -6 34 -9 2 -68 8 -129 11 l-113 7
6 27 c14 65 1 60 177 63 100 2 165 -1 169 -7 4 -5 8 -28 8 -50 0 -43 20 -222
46 -422 20 -147 -3 -138 234 -87 91 19 190 40 220 45 98 18 93 14 86 79 l-7
57 48 18 c52 19 193 93 193 101 0 3 -5 14 -10 24 -10 18 -17 16 -116 -36 -100
-53 -109 -56 -142 -46 -19 6 -40 8 -45 5 -12 -7 -125 -32 -147 -32 -13 -1 -13
1 0 10 12 9 12 10 -3 5 -10 -3 -23 -6 -28 -6 -6 0 -7 -5 -3 -11 5 -8 -1 -10
-19 -5 -14 3 -27 2 -29 -5 -2 -5 -11 -7 -21 -4 -12 5 -17 18 -17 45 l0 38 73
22 c39 12 96 29 126 38 l53 16 -6 50 c-3 27 -11 53 -18 58 -11 6 -11 10 0 16
10 7 10 12 -3 22 -14 12 -33 10 -123 -8 -59 -12 -113 -22 -119 -22 -9 0 -13
15 -13 43 l0 43 146 38 145 39 15 -22 c21 -29 32 -27 104 20 34 22 66 37 70
32 3 -4 45 -105 93 -223 123 -308 114 -290 139 -290 32 0 178 71 178 87 0 7
-4 13 -8 13 -5 0 -15 19 -22 43 -8 23 -19 51 -26 62 -33 55 -31 58 84 172 60
59 126 130 148 156 38 46 41 48 106 54 74 6 111 -8 121 -46 11 -44 -31 -74
-133 -93 -30 -5 -58 -14 -61 -20 -7 -10 13 -117 25 -136 15 -24 192 26 263 75
58 39 109 108 119 159 3 18 1 56 -6 84 -23 95 -78 149 -176 171 -30 7 -54 14
-54 16 0 2 12 22 26 44 50 79 145 284 169 363 60 200 90 463 89 766 -2 181 -6
249 -23 344 -37 210 -127 444 -238 616 -75 117 -159 235 -219 306 l-54 64 38
27 c21 16 107 75 190 133 92 63 152 112 152 122 0 16 -75 84 -117 107 -12 6
-31 11 -43 11 -12 0 -85 -43 -161 -95 -129 -89 -139 -94 -139 -71 0 43 31 160
47 178 15 17 41 143 31 153 -10 10 -150 45 -180 45 -17 0 -29 -6 -32 -17z
m-1101 -704 c39 -7 71 -21 94 -39 19 -16 39 -26 44 -23 6 3 7 2 4 -4 -4 -6 12
-34 34 -64 69 -91 89 -143 88 -229 -1 -41 -5 -88 -9 -105 -7 -27 -8 -26 -9 15
-3 104 -36 245 -51 220 -4 -7 -12 1 -20 20 -19 46 -102 127 -152 149 -46 19
-131 34 -123 21 2 -4 23 -10 46 -13 23 -3 45 -9 48 -14 3 -4 22 -16 41 -27 19
-10 40 -24 45 -31 6 -6 20 -17 32 -24 19 -9 54 -60 58 -81 1 -3 11 -24 23 -48
19 -36 21 -48 12 -80 -5 -20 -10 -55 -10 -77 0 -51 -20 -90 -45 -90 -15 0 -19
6 -17 25 3 24 2 24 -14 5 -12 -16 -14 -16 -10 -3 15 50 16 86 2 118 l-14 35
-11 -27 c-15 -41 -51 -77 -69 -71 -10 4 -13 2 -8 -5 5 -8 2 -10 -8 -6 -9 3
-16 1 -16 -5 0 -6 -16 -10 -35 -9 -19 1 -35 6 -35 12 0 6 -4 5 -9 -2 -6 -11
-11 -10 -25 3 -9 9 -16 11 -16 5 0 -6 -4 -8 -10 -5 -5 3 -10 1 -10 -6 0 -7 -9
-2 -20 11 -11 13 -20 29 -20 36 0 7 -5 16 -12 20 -8 5 -10 -8 -5 -49 5 -53 4
-56 -13 -47 -10 6 -22 19 -25 30 -4 11 -10 18 -14 15 -5 -2 -6 15 -3 40 4 40
2 45 -22 56 -20 10 -32 9 -53 0 -26 -12 -27 -14 -10 -26 10 -7 14 -16 9 -19
-5 -3 -20 3 -33 13 -14 10 -41 26 -62 35 -44 18 -44 22 4 121 55 112 142 187
247 216 80 21 109 23 187 8z m-535 -373 c25 -12 61 -33 81 -46 45 -30 140
-169 146 -215 6 -44 -4 -45 -22 -2 -19 46 -60 98 -70 89 -5 -4 -5 2 -1 13 4
11 4 16 0 12 -4 -4 -26 11 -50 32 -45 43 -122 72 -183 70 -29 -1 -24 -4 29
-15 102 -23 165 -72 221 -173 33 -60 53 -181 30 -181 -6 0 -11 9 -11 21 0 31
-30 117 -46 130 -12 10 -12 6 0 -23 20 -46 24 -110 9 -115 -7 -3 -15 8 -19 24
l-7 28 -9 -25 c-8 -25 -48 -50 -77 -50 -9 0 -35 7 -58 15 -41 14 -47 14 -128
-13 -47 -16 -82 -32 -78 -37 5 -4 0 -5 -10 -2 -11 4 -29 10 -42 13 -16 4 -25
15 -28 32 -4 25 -4 24 -6 -5 -1 -28 -6 -33 -51 -48 -37 -12 -50 -22 -50 -36 0
-32 -18 -22 -42 24 -19 34 -23 58 -23 127 0 76 4 93 33 152 40 81 98 135 200
185 113 56 176 61 262 19z m257 -28 c-3 -8 -6 -5 -6 6 -1 11 2 17 5 13 3 -3 4
-12 1 -19z m288 -78 c-3 -5 -12 -10 -18 -10 -7 0 -6 4 3 10 19 12 23 12 15 0z
m75 -55 c154 -52 161 -63 80 -118 -27 -19 -47 -36 -44 -39 3 -3 1 -9 -4 -12
-6 -3 -9 2 -7 11 2 10 4 23 4 28 1 6 15 15 33 20 80 24 7 54 -114 47 -40 -3
-39 -44 2 -68 31 -19 56 -65 45 -83 -3 -6 -19 -11 -34 -11 -21 0 -35 9 -52 35
-13 19 -28 35 -32 35 -9 0 -1 -17 22 -43 13 -16 13 -19 1 -27 -8 -6 -21 -10
-28 -10 -7 0 -31 -9 -53 -21 -23 -11 -38 -16 -34 -10 6 11 -1 13 -42 14 -22 0
-26 15 -17 66 l5 23 29 -31 c17 -17 30 -38 30 -46 0 -18 11 -19 34 -2 16 12
13 17 -33 60 -27 26 -54 47 -59 47 -6 0 -13 -11 -16 -25 -7 -29 -26 -34 -27
-7 0 12 -3 10 -10 -7 -5 -13 -7 -26 -5 -29 3 -2 -8 -16 -23 -31 -16 -14 -31
-33 -34 -41 -3 -8 -6 4 -6 28 -2 111 61 172 249 238 79 27 83 28 140 9z m402
4 c76 -16 108 -35 124 -75 18 -43 11 -56 -23 -43 -14 5 -34 7 -45 3 -14 -4
-29 3 -49 22 -35 33 -48 28 -16 -6 12 -14 21 -26 19 -27 -1 -2 4 -16 13 -32
14 -28 14 -30 -7 -37 -25 -8 -48 17 -48 53 0 14 -6 23 -15 23 -13 0 -12 -6 5
-40 11 -21 20 -43 20 -48 0 -5 -17 -16 -37 -24 l-38 -15 50 3 c28 2 53 3 58 4
4 0 6 5 5 11 -2 6 3 14 9 16 10 3 9 -7 -2 -42 -15 -52 -25 -68 -25 -41 0 10
-5 14 -11 10 -6 -4 -8 -21 -5 -43 6 -34 5 -35 -9 -17 -8 11 -15 26 -15 33 0 7
-4 13 -9 13 -6 0 -6 -12 1 -31 16 -45 4 -45 -17 1 -19 43 -22 45 -45 30 -13
-8 -13 -15 3 -56 20 -53 17 -63 -9 -37 -10 10 -25 18 -33 18 -9 0 -17 10 -19
23 -3 18 -10 22 -40 23 -20 0 -46 4 -57 9 -18 7 -18 8 7 15 32 8 59 35 36 35
-8 0 -22 6 -33 13 -17 13 -17 15 11 45 33 34 39 32 73 -15 22 -33 41 -43 41
-23 0 6 -10 21 -23 33 -30 31 -24 54 29 105 37 36 43 46 34 62 -12 22 -1 26
19 8 11 -11 11 -9 2 10 -6 12 -16 22 -22 22 -6 0 -7 5 -4 10 8 13 32 13 97 -1z
m-116 -45 c-3 -8 -2 -12 4 -9 27 17 5 -17 -37 -56 -26 -24 -75 -71 -109 -104
l-61 -61 -17 29 c-9 16 -13 34 -9 40 4 7 -1 6 -10 -2 -34 -27 -16 8 25 48 23
24 47 40 55 37 8 -3 12 -2 9 3 -10 16 28 50 79 70 62 25 79 26 71 5z m204
-109 c0 -14 -4 -25 -10 -25 -5 0 -10 9 -10 21 0 11 -4 17 -10 14 -5 -3 -10 -1
-10 4 0 6 9 11 20 11 15 0 20 -7 20 -25z m223 -49 c63 -26 157 -119 157 -155
0 -10 -6 -10 -26 4 -15 9 -35 14 -48 11 -12 -3 -42 1 -66 8 -25 7 -67 12 -94
10 -42 -3 -51 0 -68 21 -11 14 -24 23 -29 20 -5 -4 -9 4 -9 17 0 20 -1 21 -16
6 -12 -12 -14 -20 -5 -36 14 -26 14 -32 1 -32 -6 0 -15 11 -21 24 -7 14 -17
22 -24 20 -20 -8 -25 23 -7 46 37 45 184 66 255 36z m-1027 -73 c-11 -11 -17
4 -9 23 7 18 8 18 11 1 2 -10 1 -21 -2 -24z m288 8 c4 -5 -3 -7 -14 -4 -23 6
-26 13 -6 13 8 0 17 -4 20 -9z m-456 -25 c-1 -14 -5 -23 -9 -20 -7 4 0 44 7
44 2 0 3 -11 2 -24z m-124 -18 c98 -44 99 -45 73 -72 -12 -13 -41 -34 -64 -46
l-43 -23 -47 25 c-27 14 -73 33 -103 43 -30 10 -59 21 -63 25 -10 8 61 58 99
70 50 15 75 11 148 -22z m304 1 c-10 -7 -8 -10 8 -15 26 -7 22 -39 -6 -54 -15
-8 -19 -4 -27 28 -10 40 1 64 25 54 11 -4 11 -6 0 -13z m749 -11 c-3 -8 -6 -5
-6 6 -1 11 2 17 5 13 3 -3 4 -12 1 -19z m62 -18 c7 0 19 -7 27 -15 14 -13 14
-15 0 -15 -19 0 -66 39 -66 54 0 6 7 3 14 -6 7 -10 19 -18 25 -18z m-606 7 c3
-9 -8 -18 -30 -26 -25 -9 -32 -16 -22 -21 7 -5 28 -2 48 6 19 8 36 12 39 9 3
-3 -12 -23 -33 -45 -32 -33 -41 -37 -54 -27 -14 10 -14 10 -3 -4 11 -14 7 -21
-23 -48 -48 -42 -80 -49 -113 -24 -66 49 -23 113 101 154 37 13 67 26 67 31 0
13 17 9 23 -5z m-299 -60 c8 -26 11 -47 6 -47 -4 0 -28 9 -54 20 l-46 21 15
29 c14 28 43 43 57 30 4 -3 14 -27 22 -53z m521 16 c49 -25 173 -122 204 -162
32 -40 61 -103 61 -132 0 -34 -70 -65 -295 -134 -83 -25 -98 -27 -198 -21
-159 10 -153 5 -161 123 l-8 98 49 44 c26 24 88 82 136 128 l89 84 46 -7 c26
-4 61 -13 77 -21z m303 -38 c0 -14 -5 -22 -10 -19 -5 3 -7 12 -4 20 3 7 1 16
-4 19 -6 4 -10 11 -10 17 0 7 5 7 14 -1 7 -6 14 -22 14 -36z m410 10 c82 -37
112 -83 112 -171 0 -139 -120 -244 -278 -244 -57 0 -95 15 -126 49 -11 12 -24
21 -29 21 -6 0 -30 9 -53 20 -38 19 -42 25 -53 76 -12 63 -10 68 50 151 42 57
86 94 139 118 54 24 160 15 238 -20z m-1683 11 c70 -18 151 -55 169 -75 15
-16 15 -21 1 -54 -20 -49 -19 -92 5 -162 l20 -59 -22 -23 c-48 -51 -212 -71
-301 -36 -131 52 -226 177 -203 268 7 29 59 91 90 107 43 23 122 47 156 48 19
0 58 -6 85 -14z m1229 -23 c9 -18 12 -33 7 -33 -5 0 -11 8 -14 18 -2 9 -8 26
-12 37 -11 28 0 16 19 -22z m81 -13 c-3 -5 -12 -10 -18 -10 -7 0 -6 4 3 10 19
12 23 12 15 0z m-885 -30 c17 -12 53 -55 78 -94 46 -69 47 -73 47 -151 l0 -80
-65 -8 c-135 -17 -239 25 -285 116 -31 62 -32 107 -4 165 39 80 153 106 229
52z m751 -9 c-6 -4 0 -18 14 -35 29 -34 30 -37 11 -30 -23 9 -67 82 -53 87 16
6 41 -14 28 -22z m107 -16 c-6 -14 -13 -24 -14 -22 -6 6 9 47 17 47 5 0 3 -11
-3 -25z m108 -389 c31 -47 35 -49 40 -28 4 15 12 21 23 18 52 -16 74 -16 127
-2 32 8 60 14 62 11 2 -2 -14 -54 -36 -117 -23 -62 -44 -124 -48 -138 -11 -43
-104 -261 -147 -348 -38 -79 -44 -85 -92 -106 -113 -50 -270 -92 -281 -75 -2
5 18 73 45 151 27 79 77 231 111 338 55 177 88 277 111 337 12 33 45 18 85
-41z m-211 -238 c-48 -144 -100 -305 -117 -355 -27 -85 -48 -124 -48 -91 0 18
65 223 144 453 95 279 100 292 104 273 2 -9 -36 -135 -83 -280z m-49 230 l-5
-43 16 38 c10 23 21 36 29 33 7 -3 16 -1 19 4 4 6 10 10 15 10 5 0 -3 -35 -16
-77 -14 -43 -31 -98 -39 -123 -7 -25 -27 -83 -43 -130 -17 -47 -47 -139 -67
-205 -21 -66 -40 -124 -42 -128 -3 -4 -17 9 -32 30 -15 21 -51 51 -80 67 -46
24 -61 28 -106 23 l-53 -5 17 61 c42 148 103 364 109 392 7 26 13 30 46 33 21
2 48 9 60 16 12 7 48 19 81 26 33 7 65 14 70 15 24 8 26 3 21 -37z m-800 -3
c24 -16 50 -83 89 -240 13 -55 46 -155 71 -222 l47 -123 -27 -59 c-14 -32 -26
-75 -26 -95 0 -34 -2 -36 -32 -36 -46 0 -260 38 -269 47 -4 5 -23 78 -43 163
-21 85 -59 231 -87 324 -55 190 -58 210 -30 201 10 -3 23 1 30 9 12 14 67 32
84 28 4 -1 18 5 30 14 27 19 128 12 163 -11z m311 11 c32 -8 75 -17 96 -21 37
-6 77 -35 77 -55 0 -5 -9 -19 -21 -31 -15 -15 -18 -24 -10 -32 16 -16 13 -26
-7 -20 -12 3 -22 -4 -29 -19 -15 -34 -31 -125 -31 -178 0 -56 -1 -60 -12 -35
-9 20 -9 20 -9 -1 -1 -11 3 -24 9 -30 19 -19 -60 -144 -91 -144 -11 0 -48 130
-44 152 3 11 -4 37 -15 58 -25 48 -111 331 -104 342 3 4 26 8 52 8 26 0 54 5
62 10 18 12 8 12 77 -4z m-718 -71 c13 -27 26 -60 27 -72 1 -13 25 -82 52
-155 28 -73 60 -170 73 -215 12 -45 26 -80 31 -77 5 3 6 -12 2 -33 -4 -30 -1
-43 15 -62 24 -27 27 -42 9 -37 -7 2 -34 9 -59 16 l-46 12 -46 136 c-50 147
-147 493 -147 524 0 16 6 19 33 16 27 -3 35 -10 56 -53z m536 -111 c18 -71 49
-184 69 -252 39 -133 45 -176 20 -129 -31 57 -144 458 -144 510 0 48 23 -7 55
-129z m1196 89 c-12 -20 -14 -14 -5 12 4 9 9 14 11 11 3 -2 0 -13 -6 -23z
m-106 -315 c-59 -178 -103 -278 -122 -278 -11 0 -13 5 -8 18 5 9 20 51 36 92
15 41 41 107 59 145 17 39 41 94 52 123 11 29 22 51 25 48 3 -3 -16 -69 -42
-148z m-699 -133 c19 -8 40 -20 47 -27 16 -18 21 -41 6 -32 -9 5 -10 2 -6 -9
3 -9 2 -19 -3 -22 -6 -4 -10 -1 -10 6 0 9 -4 9 -15 -1 -11 -9 -18 -9 -33 2
-11 7 -19 18 -18 23 0 6 -19 11 -44 11 -25 1 -33 0 -17 -3 15 -2 27 -8 27 -13
0 -4 10 -11 23 -14 39 -11 65 -41 91 -106 14 -35 26 -70 26 -78 0 -26 -29 7
-57 66 -21 44 -33 58 -68 73 -46 20 -80 16 -129 -16 -32 -21 -63 -81 -58 -112
5 -30 85 -118 122 -133 42 -17 80 7 80 51 0 49 -15 66 -72 79 -55 13 -68 23
-68 52 0 16 25 48 38 48 4 0 12 -10 17 -22 6 -12 26 -30 45 -41 64 -34 85 -62
85 -113 0 -39 -5 -50 -33 -75 -46 -41 -104 -41 -128 1 -10 16 -49 52 -87 80
-75 57 -87 77 -87 150 0 45 3 51 43 83 116 93 209 123 283 92z m112 -110 c-3
-3 -9 2 -12 12 -6 14 -5 15 5 6 7 -7 10 -15 7 -18z m-54 -51 c3 -8 2 -12 -4
-9 -6 3 -10 10 -10 16 0 14 7 11 14 -7z m486 -156 c-18 -57 -34 -108 -35 -114
-5 -17 -85 -37 -161 -39 -40 -2 -77 -6 -83 -9 -6 -4 -33 -13 -61 -20 l-50 -13
4 57 c6 74 16 130 25 130 73 2 188 35 316 89 50 21 70 28 74 25 2 -2 -11 -49
-29 -106z m-1247 73 c51 -17 112 -34 137 -40 l45 -10 -54 6 c-42 4 -52 2 -49
-8 3 -8 15 -19 28 -26 35 -18 72 -60 57 -67 -7 -4 7 -4 30 -1 37 4 42 2 48
-17 4 -13 18 -38 32 -55 l24 -33 -44 0 c-80 0 -269 38 -289 58 -10 10 -27 56
-38 103 -11 46 -22 92 -24 102 -5 22 -11 22 97 -12z m214 -57 c-3 -3 -12 -4
-19 -1 -8 3 -5 6 6 6 11 1 17 -2 13 -5z m126 -190 c8 -9 179 -35 262 -40 121
-7 141 4 176 101 l11 30 10 -25 c30 -78 -52 -160 -159 -160 -46 0 -209 37
-258 59 -57 25 -115 93 -115 134 0 30 2 28 35 -32 19 -35 36 -65 38 -67z m107
1 c19 -7 28 -14 20 -14 -8 0 -28 6 -45 14 -39 17 -21 18 25 0z m1510 -185 c0
-13 -88 -102 -183 -184 -55 -48 -70 -57 -78 -45 -14 22 -12 25 49 73 31 24 84
72 117 105 54 56 95 77 95 51z"/>
<path d="M2383 3783 c9 -2 23 -2 30 0 6 3 -1 5 -18 5 -16 0 -22 -2 -12 -5z"/>
<path d="M2293 3754 c-36 -18 -77 -54 -69 -61 3 -3 21 8 41 25 19 17 41 29 49
26 8 -3 17 -1 20 5 11 17 -9 20 -41 5z"/>
<path d="M2483 3693 c9 -2 23 -2 30 0 6 3 -1 5 -18 5 -16 0 -22 -2 -12 -5z"/>
<path d="M2621 3626 c37 -43 51 -73 65 -136 8 -37 13 -46 13 -26 2 51 -22 107
-63 150 -23 23 -29 28 -15 12z"/>
<path d="M2380 3639 c0 -5 5 -7 10 -4 6 3 10 8 10 11 0 2 -4 4 -10 4 -5 0 -10
-5 -10 -11z"/>
<path d="M1739 3262 c-8 -10 -19 -24 -24 -32 -8 -13 -7 -13 9 -1 16 13 41 51
34 51 -2 0 -10 -8 -19 -18z"/>
<path d="M1687 3183 c-4 -3 -7 -13 -7 -22 1 -13 3 -13 11 2 11 19 8 33 -4 20z"/>
<path d="M2959 3223 c-13 -16 -12 -17 4 -4 9 7 17 15 17 17 0 8 -8 3 -21 -13z"/>
<path d="M3070 3220 c-12 -8 -10 -10 8 -10 13 0 20 4 17 10 -7 12 -6 12 -25 0z"/>
<path d="M2910 3103 c0 -6 8 -17 18 -24 16 -13 16 -13 2 6 -8 11 -16 22 -17
24 -2 2 -3 0 -3 -6z"/>
<path d="M2790 3220 c-13 -8 -12 -10 3 -10 9 0 17 5 17 10 0 12 -1 12 -20 0z"/>
<path d="M2397 2903 c-10 -10 -8 -42 3 -63 10 -19 40 -18 40 2 0 5 -4 7 -9 3
-5 -3 -13 0 -17 6 -4 6 0 16 9 21 9 5 14 15 11 23 -6 16 -26 20 -37 8z"/>
<path d="M2330 2275 c-7 -9 -11 -18 -8 -20 3 -3 11 1 18 10 7 9 11 18 8 20 -3
3 -11 -1 -18 -10z"/>
<path d="M2393 2180 c-13 -5 -23 -15 -23 -21 0 -7 3 -9 6 -6 4 3 16 0 28 -8
11 -8 30 -15 41 -14 18 0 17 2 -5 11 -25 11 -25 11 -2 15 26 5 29 18 6 27 -19
7 -23 7 -51 -4z"/>
<path d="M2425 2077 c-4 -10 -5 -21 -1 -24 10 -10 18 4 13 24 -4 17 -4 17 -12
0z"/>
<path d="M2738 4383 c7 -3 16 -2 19 1 4 3 -2 6 -13 5 -11 0 -14 -3 -6 -6z"/>
<path d="M3235 4263 c50 -20 123 -54 163 -75 39 -21 72 -36 72 -33 0 16 -282
146 -314 145 -6 -1 30 -17 79 -37z"/>
<path d="M3200 4226 c0 -2 15 -9 33 -15 29 -10 30 -9 13 4 -18 14 -46 20 -46
11z"/>
<path d="M3314 4176 c11 -9 24 -16 30 -16 12 0 7 5 -24 19 -24 11 -24 11 -6
-3z"/>
<path d="M1605 4170 c-3 -6 1 -7 9 -4 18 7 21 14 7 14 -6 0 -13 -4 -16 -10z"/>
<path d="M3380 4146 c0 -3 14 -12 30 -21 17 -9 30 -13 30 -11 0 3 -13 12 -30
21 -16 9 -30 13 -30 11z"/>
<path d="M1294 3888 l-19 -23 23 19 c21 18 27 26 19 26 -2 0 -12 -10 -23 -22z"/>
<path d="M3780 3836 c0 -2 8 -10 18 -17 15 -13 16 -12 3 4 -13 16 -21 21 -21
13z"/>
<path d="M1159 3803 l-24 -28 28 24 c25 23 32 31 24 31 -2 0 -14 -12 -28 -27z"/>
<path d="M1219 3803 c-13 -16 -12 -17 4 -4 9 7 17 15 17 17 0 8 -8 3 -21 -13z"/>
<path d="M3869 3742 c5 -9 19 -26 32 -37 19 -16 18 -13 -5 18 -30 39 -43 49
-27 19z"/>
<path d="M1094 3728 l-19 -23 23 19 c12 11 22 21 22 23 0 8 -8 2 -26 -19z"/>
<path d="M1034 3658 c-59 -86 -56 -88 10 -5 20 26 33 47 28 47 -5 0 -22 -19
-38 -42z"/>
<path d="M3939 3652 c5 -10 18 -25 27 -33 11 -9 9 -2 -6 19 -26 35 -36 42 -21
14z"/>
<path d="M973 3568 c-15 -20 -25 -38 -20 -38 3 0 12 11 21 25 17 26 16 35 -1
13z"/>
<path d="M928 3498 c-22 -34 -52 -95 -41 -83 13 14 65 105 60 105 -3 0 -11
-10 -19 -22z"/>
<path d="M4036 3507 c3 -10 9 -15 12 -12 3 3 0 11 -7 18 -10 9 -11 8 -5 -6z"/>
<path d="M4160 3365 c0 -5 5 -17 10 -25 5 -8 10 -10 10 -5 0 6 -5 17 -10 25
-5 8 -10 11 -10 5z"/>
<path d="M827 3305 c-24 -50 -20 -58 4 -12 11 22 19 41 17 43 -3 2 -12 -12
-21 -31z"/>
<path d="M796 3235 c-9 -26 -7 -32 5 -12 6 10 9 21 6 23 -2 3 -7 -2 -11 -11z"/>
<path d="M4304 2585 c0 -195 0 -197 8 -77 5 67 5 157 1 200 -6 60 -8 33 -9
-123z"/>
<path d="M1092 2665 c-18 -8 -35 -14 -38 -14 -3 0 -8 -2 -11 -5 -16 -16 45 -3
67 14 30 23 26 24 -18 5z"/>
<path d="M1005 2651 c-19 -8 -124 -77 -135 -88 -11 -12 57 27 89 51 19 14 40
26 47 26 7 0 16 5 19 10 7 12 7 12 -20 1z"/>
<path d="M910 2530 c-11 -11 -19 -32 -19 -47 l2 -28 4 27 c5 32 17 43 63 56
l35 10 -32 1 c-21 1 -41 -7 -53 -19z"/>
<path d="M1090 2536 c0 -8 5 -18 10 -21 6 -3 10 3 10 14 0 12 -4 21 -10 21 -5
0 -10 -6 -10 -14z"/>
<path d="M1015 2521 c25 -29 26 -88 1 -125 -9 -15 -36 -36 -59 -47 -23 -10
-35 -19 -27 -19 47 0 120 79 120 130 0 32 -21 72 -40 78 -11 4 -9 -1 5 -17z"/>
<path d="M4004 2509 c-19 -22 -19 -22 3 -10 31 16 58 14 75 -6 26 -30 28 -63
7 -84 -10 -10 -15 -19 -9 -19 5 0 17 11 26 25 18 28 12 59 -19 93 -26 28 -58
28 -83 1z"/>
<path d="M3911 2472 c-17 -31 -13 -40 5 -14 9 13 14 26 11 29 -3 2 -10 -4 -16
-15z"/>
<path d="M960 2475 c0 -18 19 -40 26 -32 4 4 0 15 -9 24 -9 10 -17 13 -17 8z"/>
<path d="M4020 2439 c0 -5 5 -7 10 -4 6 3 10 8 10 11 0 2 -4 4 -10 4 -5 0 -10
-5 -10 -11z"/>
<path d="M796 2361 c-9 -15 33 -34 79 -37 l40 -3 -39 10 c-22 5 -48 16 -57 25
-11 10 -19 12 -23 5z"/>
<path d="M4292 2350 c0 -14 2 -19 5 -12 2 6 2 18 0 25 -3 6 -5 1 -5 -13z"/>
<path d="M4180 2315 c-11 -14 -24 -16 -65 -11 -34 4 -45 2 -35 -4 8 -5 29 -10
45 -10 l30 -1 -42 -38 c-23 -21 -66 -47 -95 -59 -29 -11 -46 -21 -37 -21 47
-2 226 122 217 150 -2 7 -9 5 -18 -6z"/>
<path d="M884 2282 c12 -19 97 -72 115 -72 9 0 -8 14 -38 30 -29 16 -61 35
-69 42 -13 11 -14 11 -8 0z"/>
<path d="M3916 2271 c-3 -5 1 -11 9 -15 8 -3 15 -1 15 4 0 13 -18 22 -24 11z"/>
<path d="M1070 2260 c0 -5 12 -10 28 -10 21 0 24 2 12 10 -20 13 -40 13 -40 0z"/>
<path d="M3834 2195 c-17 -13 -17 -14 -2 -15 9 0 20 5 23 11 11 17 0 20 -21 4z"/>
<path d="M4301 2174 c0 -11 3 -14 6 -6 3 7 2 16 -1 19 -3 4 -6 -2 -5 -13z"/>
<path d="M3938 2163 c7 -3 16 -2 19 1 4 3 -2 6 -13 5 -11 0 -14 -3 -6 -6z"/>
<path d="M4262 2080 c0 -14 2 -19 5 -12 2 6 2 18 0 25 -3 6 -5 1 -5 -13z"/>
<path d="M4251 2034 c0 -11 3 -14 6 -6 3 7 2 16 -1 19 -3 4 -6 -2 -5 -13z"/>
<path d="M4221 1924 c-7 -20 -11 -38 -8 -40 3 -3 10 11 17 31 16 47 8 55 -9 9z"/>
<path d="M820 1865 c0 -5 5 -17 10 -25 5 -8 10 -10 10 -5 0 6 -5 17 -10 25 -5
8 -10 11 -10 5z"/>
<path d="M4166 1773 c-6 -14 -5 -15 5 -6 7 7 10 15 7 18 -3 3 -9 -2 -12 -12z"/>
<path d="M870 1744 c0 -6 7 -19 16 -30 14 -18 14 -18 3 6 -14 31 -19 36 -19
24z"/>
<path d="M4170 1720 c-6 -11 -8 -20 -6 -20 3 0 10 9 16 20 6 11 8 20 6 20 -3
0 -10 -9 -16 -20z"/>
<path d="M4030 1470 c-6 -11 -8 -20 -6 -20 3 0 10 9 16 20 6 11 8 20 6 20 -3
0 -10 -9 -16 -20z"/>
<path d="M3754 1188 l-29 -31 38 28 c38 28 44 35 29 35 -5 0 -21 -14 -38 -32z"/>
<path d="M3320 865 c-14 -8 -20 -14 -14 -15 5 0 19 7 30 15 24 18 16 19 -16 0z"/>
<path d="M3225 820 c-16 -11 -26 -20 -22 -20 11 0 67 29 67 35 0 10 -16 4 -45
-15z"/>
<path d="M3314 824 c-18 -14 -18 -15 4 -4 12 6 22 13 22 15 0 8 -5 6 -26 -11z"/>
<path d="M3140 780 c-19 -11 -30 -19 -25 -19 6 0 26 8 45 19 19 11 31 19 25
19 -5 0 -26 -8 -45 -19z"/>
<path d="M1860 780 c8 -5 22 -10 30 -10 13 0 13 1 0 10 -8 5 -22 10 -30 10
-13 0 -13 -1 0 -10z"/>
<path d="M3070 750 c-8 -5 -10 -10 -5 -10 6 0 17 5 25 10 8 5 11 10 5 10 -5 0
-17 -5 -25 -10z"/>
<path d="M3160 750 c-8 -5 -10 -10 -5 -10 6 0 17 5 25 10 8 5 11 10 5 10 -5 0
-17 -5 -25 -10z"/>
<path d="M1890 730 c8 -5 20 -10 25 -10 6 0 3 5 -5 10 -8 5 -19 10 -25 10 -5
0 -3 -5 5 -10z"/>
<path d="M1967 699 c7 -7 15 -10 18 -7 3 3 -2 9 -12 12 -14 6 -15 5 -6 -5z"/>
<path d="M2588 643 c7 -3 16 -2 19 1 4 3 -2 6 -13 5 -11 0 -14 -3 -6 -6z"/>
</g>
</svg>
